<svg height="141.732" id="Livello_1" version="1.1" width="141.732" xml:space="preserve" xmlns="http://www.w3.org/2000/svg"><path d="M113.326 70.191c0-2.97-2.377-5.376-5.307-5.376H75.543V32.386a5.398 5.398 0 00-5.396-5.397 5.399 5.399 0 00-5.398 5.397V70.17a5.399 5.399 0 005.398 5.398h37.875c2.927 0 5.304-2.407 5.304-5.377m16.207-.034c0 32.798-26.584 59.386-59.375 59.386-32.793 0-59.375-26.588-59.375-59.386s26.582-59.386 59.375-59.386c32.791 0 59.375 26.588 59.375 59.386m10.781 0C140.314 31.41 108.904 0 70.158 0 31.41 0 0 31.41 0 70.157s31.41 70.157 70.158 70.157c38.746 0 70.156-31.41 70.156-70.157" id="Livello_5"/></svg>