<svg height="32" id="Слой_1" version="1.1" width="32" xml:space="preserve" xmlns="http://www.w3.org/2000/svg"><g id="Double_Chevron_Down" fill="#121313"><path d="M22.285 15.349L16 21.544l-6.285-6.196a1.016 1.016 0 00-1.428 0 .994.994 0 000 1.414l6.999 6.899c.379.375 1.048.377 1.429 0l6.999-6.9a.994.994 0 000-1.414 1.019 1.019 0 00-1.429.002z"/><path d="M15.286 16.662c.379.375 1.048.377 1.429 0l6.999-6.899a.994.994 0 000-1.414 1.016 1.016 0 00-1.428 0L16 14.544 9.715 8.349a1.016 1.016 0 00-1.428 0 .994.994 0 000 1.414l6.999 6.899z"/></g></svg>