<svg viewBox="0 0 24 24" xmlns="http://www.w3.org/2000/svg"><path d="M17.167 16.155a2.5 2.5 0 00-3.535 0l-.385.384a46.692 46.692 0 01-5.789-5.789l.385-.385a2.5 2.5 0 000-3.536L5.721 4.708a2.5 2.5 0 00-3.535 0L1.022 5.872a3.51 3.51 0 00-.442 4.4 46.932 46.932 0 0013.142 13.145 3.542 3.542 0 004.4-.442l1.165-1.164a2.5 2.5 0 000-3.535zM11.5 0a1 1 0 000 2A10.512 10.512 0 0122 12.5a1 1 0 102 0A12.515 12.515 0 0011.5 0z"/><path d="M11.5 6a6.508 6.508 0 016.5 6.5 1 1 0 002 0A8.51 8.51 0 0011.5 4a1 1 0 100 2z"/><path d="M11.5 10a2.5 2.5 0 012.5 2.5 1 1 0 002 0A4.505 4.505 0 0011.5 8a1 1 0 100 2z"/></svg>