<svg xmlns="http://www.w3.org/2000/svg">
    <symbol viewBox="0 0 96 96" id="arrow">
        <path d="M69.8437,43.3876,33.8422,13.3863a6.0035,6.0035,0,0,0-7.6878,9.223l30.47,25.39-30.47,25.39a6.0035,6.0035,0,0,0,7.6878,9.2231L69.8437,52.6106a6.0091,6.0091,0,0,0,0-9.223Z"/>
    </symbol>
    <symbol viewBox="0 0 32 32" id="circle-arrow">
        <g data-name="Layer 2" id="Layer_2">
            <path d="M31,16A15,15,0,1,1,16,1,15,15,0,0,1,31,16ZM3,16A13,13,0,1,0,16,3,13,13,0,0,0,3,16Z"/>
            <path d="M19.87,10.41,14.29,16l5.58,5.59a1,1,0,0,1,0,1.41h0a1,1,0,0,1-1.41,0L12.1,16.64a.91.91,0,0,1,0-1.28L18.46,9a1,1,0,0,1,1.41,0h0A1,1,0,0,1,19.87,10.41Z"/>
        </g>
    </symbol>
    <symbol viewBox="0 0 141.732 141.732" id="clock">
        <g id="Livello_5">
            <path d="M113.326,70.191c0-2.97-2.377-5.376-5.307-5.376H75.543V32.387v-0.001c0-2.98-2.418-5.397-5.396-5.397   c-2.98,0-5.398,2.417-5.398,5.397V70.17c0,2.981,2.418,5.398,5.398,5.398h37.875C110.949,75.568,113.326,73.161,113.326,70.191    M129.533,70.157c0,32.798-26.584,59.386-59.375,59.386c-32.793,0-59.375-26.588-59.375-59.386s26.582-59.386,59.375-59.386   C102.949,10.771,129.533,37.359,129.533,70.157 M140.314,70.157C140.314,31.41,108.904,0,70.158,0C31.41,0,0,31.41,0,70.157   s31.41,70.157,70.158,70.157C108.904,140.314,140.314,108.904,140.314,70.157"/>
        </g>
        <g id="Livello_1_1_"/>
    </symbol>
    <symbol viewBox="0 0 32 32" id="double-arrow">
        <g id="Double_Chevron_Down">
            <path d="M22.285,15.349L16,21.544l-6.285-6.196c-0.394-0.391-1.034-0.391-1.428,0c-0.394,0.391-0.394,1.024,0,1.414   l6.999,6.899c0.379,0.375,1.048,0.377,1.429,0l6.999-6.9c0.394-0.39,0.394-1.024,0-1.414   C23.319,14.958,22.679,14.958,22.285,15.349z"/>
            <path d="M15.286,16.662c0.379,0.375,1.048,0.377,1.429,0l6.999-6.899c0.394-0.391,0.394-1.024,0-1.414   c-0.394-0.391-1.034-0.391-1.428,0L16,14.544L9.715,8.349c-0.394-0.391-1.034-0.391-1.428,0c-0.394,0.391-0.394,1.024,0,1.414   L15.286,16.662z"/>
        </g>
    </symbol>
    <symbol viewBox="0 0 48 48" id="list">
        <path d="M8 21c-1.66 0-3 1.34-3 3s1.34 3 3 3 3-1.34 3-3-1.34-3-3-3zm0-12c-1.66 0-3 1.34-3 3s1.34 3 3 3 3-1.34 3-3-1.34-3-3-3zm0 24.33c-1.47 0-2.67 1.19-2.67 2.67s1.2 2.67 2.67 2.67 2.67-1.19 2.67-2.67-1.2-2.67-2.67-2.67zm6 4.67h28v-4h-28v4zm0-12h28v-4h-28v4zm0-16v4h28v-4h-28z"/><path d="M0 0h48v48h-48z" fill="none"/>
    </symbol>
    <symbol viewBox="0 0 64 64" id="map-pin">
        <g>
            <path d="M44.525,20.734c0-6.919-5.608-12.527-12.528-12.527s-12.527,5.608-12.527,12.527c0,9.913,12.527,24.581,12.527,24.581   S44.525,30.596,44.525,20.734z M25.819,19.986c0-3.413,2.767-6.179,6.179-6.179c3.412,0,6.179,2.766,6.179,6.179   c0,3.413-2.767,6.179-6.179,6.179C28.586,26.165,25.819,23.399,25.819,19.986z"/>
            <circle cx="31.997" cy="19.986" r="3.038"/>
            <path d="M39.08,40.958c-1.021,1.475-1.979,2.761-2.777,3.793c7.916,0.475,13.104,2.184,15.034,3.456   c-2.261,1.491-8.98,3.587-19.338,3.587c-10.358,0-17.077-2.097-19.338-3.587c1.93-1.271,7.114-2.979,15.022-3.455   c-0.8-1.032-1.759-2.317-2.781-3.792c-9.741,0.959-16.816,3.841-16.816,7.246c0,4.19,10.707,7.588,23.913,7.588   c13.207,0,23.912-3.397,23.912-7.588C55.913,44.799,48.83,41.916,39.08,40.958z"/>
        </g>
    </symbol>
    <symbol viewBox="0 0 24 24" id="phone-call">
        <path d="M17.167,16.155a2.5,2.5,0,0,0-3.535,0l-.385.384A46.692,46.692,0,0,1,7.458,10.75l.385-.385a2.5,2.5,0,0,0,0-3.536L5.721,4.708a2.5,2.5,0,0,0-3.535,0L1.022,5.872a3.51,3.51,0,0,0-.442,4.4A46.932,46.932,0,0,0,13.722,23.417a3.542,3.542,0,0,0,4.4-.442l1.165-1.164a2.5,2.5,0,0,0,0-3.535Z"/>
        <path d="M11.5,0a1,1,0,0,0,0,2A10.512,10.512,0,0,1,22,12.5a1,1,0,1,0,2,0A12.515,12.515,0,0,0,11.5,0Z"/>
        <path d="M11.5,6A6.508,6.508,0,0,1,18,12.5a1,1,0,0,0,2,0A8.51,8.51,0,0,0,11.5,4a1,1,0,1,0,0,2Z"/>
        <path d="M11.5,10A2.5,2.5,0,0,1,14,12.5a1,1,0,0,0,2,0A4.505,4.505,0,0,0,11.5,8a1,1,0,1,0,0,2Z"/>
    </symbol>
    <symbol viewBox="0 0 24 24" id="phone">
        <path d="M22 16.92v3a2 2 0 0 1-2.18 2 19.79 19.79 0 0 1-8.63-3.07 19.5 19.5 0 0 1-6-6 19.79 19.79 0 0 1-3.07-8.67A2 2 0 0 1 4.11 2h3a2 2 0 0 1 2 1.72 12.84 12.84 0 0 0 .7 2.81 2 2 0 0 1-.45 2.11L8.09 9.91a16 16 0 0 0 6 6l1.27-1.27a2 2 0 0 1 2.11-.45 12.84 12.84 0 0 0 2.81.7A2 2 0 0 1 22 16.92z"/>
    </symbol>
</svg>