<svg width="64" height="64" viewBox="0 0 64 64" fill="none" xmlns="http://www.w3.org/2000/svg">
<path fill-rule="evenodd" clip-rule="evenodd" d="M31.5126 59.3375C24.1985 59.2814 17.2062 56.3221 12.074 51.1105C6.94181 45.899 4.0901 38.8621 4.14621 31.548C4.20232 24.2339 7.16166 17.2416 12.3732 12.1094C17.5848 6.97725 24.6216 4.12554 31.9357 4.18165C39.2498 4.23777 46.2421 7.19711 51.3743 12.4087C56.5065 17.6202 59.3582 24.657 59.3021 31.9712C59.246 39.2853 56.2866 46.2776 51.0751 51.4098C45.8636 56.5419 38.8267 59.3937 31.5126 59.3375V59.3375ZM31.9659 0.241949C23.6069 0.177819 15.5648 3.43692 9.60878 9.30227C3.65273 15.1676 0.270631 23.1588 0.206502 31.5178C0.142373 39.8768 3.40147 47.9189 9.26683 53.875C15.1322 59.831 23.1234 63.2131 31.4824 63.2772C39.8414 63.3414 47.8835 60.0823 53.8395 54.2169C59.7956 48.3516 63.1777 40.3604 63.2418 32.0014C63.3059 23.6424 60.0468 15.6003 54.1815 9.64423C48.3161 3.68818 40.3249 0.306078 31.9659 0.241949V0.241949ZM17.9503 29.684C17.4279 29.6799 16.9252 29.8836 16.553 30.2502C16.1807 30.6168 15.9693 31.1163 15.9653 31.6387C15.9613 32.1611 16.165 32.6638 16.5316 33.036C16.8982 33.4083 17.3976 33.6197 17.9201 33.6237L40.7428 33.7988L32.2194 42.1885C31.8466 42.5555 31.635 43.0556 31.631 43.5787C31.627 44.1018 31.8309 44.6051 32.198 44.9778C32.565 45.3505 33.0651 45.5622 33.5882 45.5662C34.1113 45.5702 34.6146 45.3662 34.9873 44.9992L46.8971 33.2707C47.0819 33.0892 47.2291 32.8729 47.3303 32.6343C47.4314 32.3958 47.4845 32.1396 47.4865 31.8805C47.4885 31.6214 47.4393 31.3645 47.3419 31.1244C47.2444 30.8843 47.1005 30.6658 46.9185 30.4814L35.19 18.5716C34.823 18.1989 34.3229 17.9873 33.7998 17.9833C33.2767 17.9792 32.7734 18.1832 32.4007 18.5502C32.028 18.9173 31.8163 19.4174 31.8123 19.9405C31.8083 20.4636 32.0123 20.9668 32.3793 21.3395L40.773 29.859L17.9503 29.684Z" fill="#F5A914"/>
</svg>
