<svg width="64" height="64" viewBox="0 0 64 64" fill="none" xmlns="http://www.w3.org/2000/svg">
<path fill-rule="evenodd" clip-rule="evenodd" d="M31.9708 59.3375C39.2849 59.2814 46.2772 56.3221 51.4094 51.1105C56.5416 45.899 59.3933 38.8621 59.3372 31.548C59.2811 24.2339 56.3217 17.2416 51.1102 12.1094C45.8986 6.97725 38.8618 4.12554 31.5477 4.18165C24.2336 4.23777 17.2413 7.19711 12.1091 12.4087C6.9769 17.6202 4.12519 24.657 4.18131 31.9712C4.23742 39.2853 7.19676 46.2776 12.4083 51.4098C17.6198 56.5419 24.6567 59.3937 31.9708 59.3375V59.3375ZM31.5175 0.241949C39.8765 0.17782 47.9186 3.43692 53.8746 9.30227C59.8307 15.1676 63.2128 23.1588 63.2769 31.5178C63.341 39.8768 60.0819 47.9189 54.2166 53.875C48.3512 59.831 40.36 63.2131 32.001 63.2772C23.642 63.3414 15.5999 60.0823 9.64388 54.2169C3.68783 48.3516 0.305729 40.3604 0.241601 32.0014C0.177472 23.6424 3.43657 15.6003 9.30193 9.64423C15.1673 3.68818 23.1585 0.306078 31.5175 0.241949V0.241949ZM45.5331 29.684C46.0555 29.6799 46.5582 29.8836 46.9304 30.2502C47.3027 30.6168 47.5141 31.1163 47.5181 31.6387C47.5221 32.1611 47.3184 32.6638 46.9518 33.036C46.5852 33.4083 46.0858 33.6197 45.5633 33.6237L22.7406 33.7988L31.264 42.1885C31.6367 42.5555 31.8484 43.0556 31.8524 43.5787C31.8564 44.1018 31.6525 44.6051 31.2854 44.9778C30.9184 45.3505 30.4183 45.5622 29.8952 45.5662C29.3721 45.5702 28.8688 45.3662 28.4961 44.9992L16.5863 33.2707C16.4015 33.0892 16.2543 32.8729 16.1531 32.6343C16.052 32.3958 15.9989 32.1396 15.9969 31.8805C15.9949 31.6214 16.0441 31.3645 16.1415 31.1244C16.239 30.8843 16.3829 30.6658 16.5649 30.4814L28.2934 18.5716C28.6604 18.1989 29.1605 17.9873 29.6836 17.9833C30.2067 17.9792 30.71 18.1832 31.0827 18.5502C31.4554 18.9173 31.667 19.4174 31.6711 19.9405C31.6751 20.4636 31.4711 20.9668 31.1041 21.3395L22.7104 29.859L45.5331 29.684Z" fill="#F5A914"/>
</svg>
