<svg width="49" height="46" viewBox="0 0 49 46" fill="none" xmlns="http://www.w3.org/2000/svg">
<path d="M47.355 36.6667H45.4483C45.699 36.1952 45.8311 35.6698 45.8333 35.1358V20.3683C46.2296 19.5707 46.4367 18.6924 46.4383 17.8017V11.9167C46.4383 11.3502 46.2133 10.807 45.8128 10.4064C45.4122 10.0059 44.869 9.78083 44.3025 9.78083H37.8858V8.86417C37.8834 6.51399 36.9487 4.26076 35.2869 2.59893C33.6251 0.937106 31.3718 0.00242662 29.0217 0H19.25C16.8998 0.00242662 14.6466 0.937106 12.9848 2.59893C11.3229 4.26076 10.3883 6.51399 10.3858 8.86417V9.78083H3.96917C3.40271 9.78083 2.85945 10.0059 2.4589 10.4064C2.05836 10.807 1.83333 11.3502 1.83333 11.9167V17.8017C1.8336 18.6954 2.04067 19.5771 2.43833 20.3775V35.1358C2.44057 35.6698 2.57271 36.1952 2.82333 36.6667H0.916667C0.673551 36.6667 0.440394 36.7632 0.268485 36.9351C0.0965771 37.1071 0 37.3402 0 37.5833C0 37.8264 0.0965771 38.0596 0.268485 38.2315C0.440394 38.4034 0.673551 38.5 0.916667 38.5H18.5167L18.4067 40.0583C18.398 40.1925 18.419 40.3269 18.4681 40.4521C18.5172 40.5772 18.5933 40.69 18.6908 40.7825L23.4942 45.4392C23.6655 45.6071 23.8959 45.7012 24.1358 45.7012C24.3758 45.7012 24.6061 45.6071 24.7775 45.4392L29.5808 40.7825C29.6784 40.69 29.7544 40.5772 29.8035 40.4521C29.8527 40.3269 29.8736 40.1925 29.865 40.0583L29.755 38.5H47.355C47.5981 38.5 47.8313 38.4034 48.0032 38.2315C48.1751 38.0596 48.2717 37.8264 48.2717 37.5833C48.2717 37.3402 48.1751 37.1071 48.0032 36.9351C47.8313 36.7632 47.5981 36.6667 47.355 36.6667ZM12.2192 8.86417C12.2216 7.00022 12.9631 5.21331 14.2811 3.8953C15.5991 2.57728 17.3861 1.83576 19.25 1.83333H29.0217C30.8856 1.83576 32.6725 2.57728 33.9905 3.8953C35.3086 5.21331 36.0501 7.00022 36.0525 8.86417V9.78083H34.2192V8.86417C34.2192 7.4857 33.6716 6.1637 32.6969 5.18898C31.7221 4.21426 30.4001 3.66667 29.0217 3.66667H19.25C17.8715 3.66667 16.5495 4.21426 15.5748 5.18898C14.6001 6.1637 14.0525 7.4857 14.0525 8.86417V9.78083H12.2192V8.86417ZM32.3858 8.86417V9.78083H30.6258C30.5213 9.50033 30.3694 9.23987 30.1767 9.01083C29.9193 8.7073 29.5992 8.46324 29.2384 8.29548C28.8775 8.12772 28.4846 8.04027 28.0867 8.03917H20.185C19.7871 8.04027 19.3941 8.12772 19.0333 8.29548C18.6725 8.46324 18.3523 8.7073 18.095 9.01083C17.9023 9.23987 17.7503 9.50033 17.6458 9.78083H15.8858V8.86417C15.8858 7.97193 16.2403 7.11624 16.8712 6.48534C17.5021 5.85444 18.3578 5.5 19.25 5.5H29.0217C29.4635 5.5 29.9009 5.58702 30.3091 5.75608C30.7172 5.92515 31.0881 6.17295 31.4005 6.48534C31.7129 6.79773 31.9607 7.1686 32.1297 7.57676C32.2988 7.98492 32.3858 8.42238 32.3858 8.86417ZM18.6358 36.6667H5.8025C5.60147 36.6667 5.4024 36.6271 5.21668 36.5501C5.03095 36.4732 4.86219 36.3604 4.72004 36.2183C4.57789 36.0761 4.46513 35.9074 4.38819 35.7216C4.31126 35.5359 4.27167 35.3369 4.27167 35.1358V22.5133C5.25248 23.2166 6.42897 23.5948 7.63583 23.595H8.5525V24.75C8.52868 25.2059 8.59791 25.662 8.75599 26.0903C8.91406 26.5186 9.15767 26.9103 9.47198 27.2415C9.78629 27.5726 10.1647 27.8364 10.5842 28.0166C11.0037 28.1968 11.4555 28.2897 11.9121 28.2897C12.3687 28.2897 12.8204 28.1968 13.2399 28.0166C13.6594 27.8364 14.0379 27.5726 14.3522 27.2415C14.6665 26.9103 14.9101 26.5186 15.0682 26.0903C15.2263 25.662 15.2955 25.2059 15.2717 24.75V23.595H19.5525L18.6358 36.6667ZM10.3858 24.75V22H13.4383V24.75C13.4546 24.9604 13.4273 25.1719 13.358 25.3712C13.2887 25.5705 13.1789 25.7533 13.0356 25.9081C12.8923 26.063 12.7185 26.1866 12.5252 26.2711C12.3318 26.3556 12.1231 26.3992 11.9121 26.3992C11.7011 26.3992 11.4923 26.3556 11.299 26.2711C11.1057 26.1866 10.9319 26.063 10.7885 25.9081C10.6452 25.7533 10.5355 25.5705 10.4662 25.3712C10.3969 25.1719 10.3695 24.9604 10.3858 24.75ZM19.6442 21.7617H15.2717V21.6975C15.2729 21.4969 15.2344 21.298 15.1585 21.1124C15.0825 20.9267 14.9707 20.7579 14.8292 20.6156C14.6878 20.4733 14.5197 20.3604 14.3344 20.2834C14.1492 20.2063 13.9506 20.1667 13.75 20.1667H10.0833C9.67733 20.1667 9.28796 20.3279 9.00087 20.615C8.71378 20.9021 8.5525 21.2915 8.5525 21.6975V21.7617H7.63583C6.58473 21.7617 5.57654 21.3447 4.83244 20.6024C4.08834 19.86 3.66909 18.8528 3.66667 17.8017V11.9167C3.66667 11.8364 3.69854 11.7595 3.75527 11.7028C3.812 11.646 3.88894 11.6142 3.96917 11.6142H17.5358L18.1775 15.4183C18.248 15.8612 18.4573 16.2703 18.7753 16.5866C19.0932 16.9029 19.5034 17.1101 19.9467 17.1783L19.6442 21.7617ZM20.2675 39.8017L20.4692 36.7492L27.5275 32.6792L27.8025 36.52L21.0008 40.4525L20.2675 39.8017ZM26.7392 20.9183L26.9958 24.7592L21.0467 28.1967L21.3217 24.035L26.7392 20.9183ZM21.4775 21.835L21.7892 17.2517H26.4825L26.6017 18.92L21.4775 21.835ZM27.1333 26.7942L27.39 30.6442L20.6158 34.5492L20.9 30.3967L27.1333 26.7942ZM24.1358 43.4683L22.3483 41.745L27.9217 38.5275L28.0042 39.7192L24.1358 43.4683ZM27.9858 15.3358H20.2858C20.2129 15.3367 20.1422 15.3112 20.0866 15.264C20.0311 15.2169 19.9944 15.1512 19.9833 15.0792L19.2867 10.8992C19.2645 10.7682 19.271 10.6339 19.3058 10.5057C19.3406 10.3775 19.4029 10.2584 19.4883 10.1567C19.5744 10.056 19.6812 9.97527 19.8015 9.91988C19.9218 9.8645 20.0526 9.83582 20.185 9.83583H28.0867C28.2191 9.83582 28.3499 9.8645 28.4702 9.91988C28.5904 9.97527 28.6973 10.056 28.7833 10.1567C28.8687 10.2584 28.931 10.3775 28.9658 10.5057C29.0007 10.6339 29.0072 10.7682 28.985 10.8992L28.2883 15.0792C28.2859 15.1578 28.253 15.2324 28.1966 15.2872C28.1401 15.3419 28.0645 15.3725 27.9858 15.3725V15.3358ZM28.325 17.1692C28.767 17.1015 29.1762 16.8956 29.494 16.5811C29.8118 16.2666 30.0219 15.8596 30.0942 15.4183L30.7358 11.6142H44.3025C44.3827 11.6142 44.4597 11.646 44.5164 11.7028C44.5731 11.7595 44.605 11.8364 44.605 11.9167V17.8017C44.6026 18.8528 44.1833 19.86 43.4392 20.6024C42.6951 21.3447 41.6869 21.7617 40.6358 21.7617H39.7192V21.6975C39.7192 21.2915 39.5579 20.9021 39.2708 20.615C38.9837 20.3279 38.5943 20.1667 38.1883 20.1667H34.5217C34.3211 20.1667 34.1224 20.2063 33.9372 20.2834C33.752 20.3604 33.5838 20.4733 33.4424 20.6156C33.301 20.7579 33.1891 20.9267 33.1132 21.1124C33.0373 21.298 32.9988 21.4969 33 21.6975V21.7617H28.6275L28.325 17.1692ZM37.8858 22V24.75C37.9021 24.9604 37.8748 25.1719 37.8055 25.3712C37.7362 25.5705 37.6264 25.7533 37.4831 25.9081C37.3398 26.063 37.166 26.1866 36.9727 26.2711C36.7793 26.3556 36.5706 26.3992 36.3596 26.3992C36.1486 26.3992 35.9398 26.3556 35.7465 26.2711C35.5532 26.1866 35.3794 26.063 35.236 25.9081C35.0927 25.7533 34.983 25.5705 34.9137 25.3712C34.8444 25.1719 34.817 24.9604 34.8333 24.75V22H37.8858ZM29.6358 36.6667L28.7192 23.595H32.9633V24.75C32.9395 25.2059 33.0087 25.662 33.1668 26.0903C33.3249 26.5186 33.5685 26.9103 33.8828 27.2415C34.1971 27.5726 34.5756 27.8364 34.9951 28.0166C35.4146 28.1968 35.8663 28.2897 36.3229 28.2897C36.7795 28.2897 37.2313 28.1968 37.6508 28.0166C38.0703 27.8364 38.4487 27.5726 38.763 27.2415C39.0773 26.9103 39.3209 26.5186 39.479 26.0903C39.6371 25.662 39.7063 25.2059 39.6825 24.75V23.595H40.5992C41.806 23.5948 42.9825 23.2166 43.9633 22.5133V35.1358C43.9634 35.5356 43.8072 35.9195 43.528 36.2055C43.2488 36.4916 42.8688 36.6571 42.4692 36.6667H29.6358Z" fill="#F5A914"/>
</svg>
