<svg width="49" height="46" fill="none" xmlns="http://www.w3.org/2000/svg"><path d="M47.355 36.667h-1.907a3.29 3.29 0 00.385-1.531V20.368a5.792 5.792 0 00.605-2.566v-5.885a2.136 2.136 0 00-2.136-2.136h-6.416v-.917A8.873 8.873 0 0029.022 0H19.25a8.873 8.873 0 00-8.864 8.864v.917H3.969a2.136 2.136 0 00-2.136 2.136v5.885c0 .893.208 1.775.605 2.576v14.758a3.3 3.3 0 00.385 1.53H.917a.917.917 0 100 1.834h17.6l-.11 1.558a.916.916 0 00.284.724l4.803 4.657a.917.917 0 001.284 0l4.803-4.657a.917.917 0 00.284-.724l-.11-1.558h17.6a.917.917 0 000-1.833zM12.219 8.864a7.04 7.04 0 017.031-7.03h9.772a7.04 7.04 0 017.03 7.03v.917H34.22v-.917a5.198 5.198 0 00-5.197-5.197H19.25a5.197 5.197 0 00-5.197 5.197v.917h-1.834v-.917zm20.167 0v.917h-1.76a2.613 2.613 0 00-.45-.77 2.751 2.751 0 00-2.09-.972h-7.901a2.75 2.75 0 00-2.09.972c-.193.229-.345.49-.45.77h-1.76v-.917A3.364 3.364 0 0119.25 5.5h9.772a3.364 3.364 0 013.364 3.364zm-13.75 27.803H5.803a1.53 1.53 0 01-1.531-1.531V22.513a5.775 5.775 0 003.364 1.082h.917v1.155a3.364 3.364 0 106.719 0v-1.155h4.28l-.916 13.072zm-8.25-11.917V22h3.052v2.75a1.531 1.531 0 11-3.052 0zm9.258-2.988h-4.372v-.064a1.522 1.522 0 00-1.522-1.531h-3.667a1.53 1.53 0 00-1.53 1.53v.065h-.917a3.97 3.97 0 01-3.97-3.96v-5.885a.302.302 0 01.303-.303h13.567l.641 3.804a2.117 2.117 0 001.77 1.76l-.303 4.584zm.623 18.04l.202-3.053 7.058-4.07.275 3.841-6.801 3.932-.734-.65zm6.472-18.884l.257 3.841-5.95 3.438.276-4.162 5.417-3.117zm-5.262.917l.312-4.583h4.694l.119 1.668-5.125 2.915zm5.656 4.96l.257 3.85-6.774 3.904.284-4.152 6.233-3.603zm-2.997 16.673l-1.788-1.723 5.574-3.217.082 1.191-3.868 3.75zm3.85-28.132h-7.7a.302.302 0 01-.303-.257l-.696-4.18a.917.917 0 01.201-.742.916.916 0 01.697-.321h7.902a.917.917 0 01.696.32.916.916 0 01.202.743l-.697 4.18a.303.303 0 01-.302.293v-.036zm.339 1.833a2.118 2.118 0 001.77-1.75l.64-3.805h13.568a.302.302 0 01.302.303v5.885a3.97 3.97 0 01-3.97 3.96h-.916v-.064a1.53 1.53 0 00-1.53-1.531h-3.667A1.52 1.52 0 0033 21.697v.065h-4.372l-.303-4.593zM37.885 22v2.75a1.531 1.531 0 11-3.052 0V22h3.053zm-8.25 14.667l-.916-13.072h4.244v1.155a3.364 3.364 0 106.72 0v-1.155h.916a5.775 5.775 0 003.364-1.082v12.623a1.53 1.53 0 01-1.494 1.53H29.636z" fill="#F5A914"/></svg>