<svg width="39" height="45" viewBox="0 0 39 45" fill="none" xmlns="http://www.w3.org/2000/svg">
<path d="M19.5 15.8906C17.0308 15.8906 14.6171 16.6228 12.5641 17.9946C10.511 19.3664 8.91086 21.3162 7.96595 23.5974C7.02103 25.8787 6.7738 28.3888 7.25551 30.8106C7.73723 33.2323 8.92625 35.4568 10.6722 37.2028C12.4182 38.9488 14.6427 40.1378 17.0644 40.6195C19.4862 41.1012 21.9963 40.854 24.2776 39.9091C26.5588 38.9641 28.5086 37.364 29.8804 35.3109C31.2522 33.2579 31.9844 30.8442 31.9844 28.375C31.9807 25.0651 30.6642 21.8918 28.3237 19.5513C25.9832 17.2108 22.8099 15.8943 19.5 15.8906ZM19.5 39.3906C17.3213 39.3906 15.1916 38.7446 13.3801 37.5342C11.5685 36.3237 10.1566 34.6033 9.3229 32.5905C8.48915 30.5777 8.271 28.3628 8.69604 26.226C9.12108 24.0891 10.1702 22.1263 11.7108 20.5858C13.2513 19.0452 15.2141 17.9961 17.351 17.571C19.4878 17.146 21.7027 17.3641 23.7155 18.1979C25.7283 19.0316 27.4488 20.4435 28.6592 22.255C29.8696 24.0666 30.5156 26.1963 30.5156 28.375C30.5123 31.2955 29.3507 34.0955 27.2856 36.1606C25.2205 38.2257 22.4205 39.3873 19.5 39.3906Z" fill="#F5A914"/>
<path d="M22.4375 33.5156H20.2343V22.5C20.2343 22.3748 20.2024 22.2517 20.1414 22.1423C20.0804 22.033 19.9925 21.941 19.886 21.8752C19.7795 21.8094 19.658 21.7719 19.5329 21.7663C19.4079 21.7607 19.2834 21.7871 19.1715 21.8431L16.234 23.3118C16.1477 23.355 16.0708 23.4147 16.0076 23.4876C15.9444 23.5604 15.8962 23.645 15.8657 23.7365C15.8352 23.828 15.823 23.9246 15.8299 24.0208C15.8367 24.117 15.8624 24.211 15.9056 24.2972C15.9487 24.3835 16.0084 24.4604 16.0813 24.5236C16.1541 24.5868 16.2387 24.635 16.3302 24.6655C16.4217 24.696 16.5183 24.7082 16.6146 24.7013C16.7108 24.6945 16.8047 24.6688 16.8909 24.6256L18.7656 23.6884V33.5156H16.5625C16.3677 33.5156 16.1809 33.593 16.0432 33.7307C15.9055 33.8684 15.8281 34.0552 15.8281 34.25C15.8281 34.4448 15.9055 34.6316 16.0432 34.7693C16.1809 34.907 16.3677 34.9844 16.5625 34.9844H22.4375C22.6322 34.9844 22.819 34.907 22.9567 34.7693C23.0945 34.6316 23.1718 34.4448 23.1718 34.25C23.1718 34.0552 23.0945 33.8684 22.9567 33.7307C22.819 33.593 22.6322 33.5156 22.4375 33.5156Z" fill="#F5A914"/>
<path d="M38.4725 0.799219C38.4057 0.69768 38.3147 0.614332 38.2076 0.556653C38.1006 0.498975 37.9809 0.46877 37.8593 0.46875H27.5781C27.4344 0.468714 27.2938 0.510866 27.1739 0.589978C27.0539 0.66909 26.9598 0.78168 26.9033 0.913781L21.9767 12.4087C20.3377 12.1497 18.6677 12.1554 17.0305 12.4258L12.0967 0.913781C12.0401 0.78168 11.946 0.66909 11.826 0.589978C11.7061 0.510866 11.5655 0.468714 11.4218 0.46875H1.14059C1.01907 0.468776 0.899461 0.498956 0.792477 0.556585C0.685492 0.614214 0.59448 0.697491 0.5276 0.79895C0.460721 0.900408 0.420063 1.01688 0.409273 1.13792C0.398483 1.25896 0.417897 1.38078 0.465776 1.49247L7.40937 17.6845C5.34723 20.0142 4.00183 22.89 3.53491 25.966C3.06799 29.042 3.49941 32.1875 4.77732 35.0242C6.05522 37.861 8.12522 40.2682 10.7385 41.9567C13.3518 43.6452 16.3971 44.543 19.5083 44.5421C22.6196 44.5413 25.6645 43.642 28.2768 41.9521C30.8892 40.2623 32.958 37.8539 34.2344 35.0165C35.5108 32.1791 35.9406 29.0335 35.4721 25.9577C35.0035 22.8819 33.6566 20.0068 31.5933 17.6782L38.5342 1.49254C38.5821 1.38092 38.6016 1.25912 38.5909 1.1381C38.5801 1.01708 38.5395 0.900634 38.4725 0.799219ZM28.0622 1.9375H32.3393L27.1159 14.1212C26.699 13.8984 26.27 13.6987 25.8338 13.5135C25.8019 13.4998 25.7701 13.4862 25.7383 13.4727C25.535 13.3879 25.3305 13.3063 25.1234 13.2298C25.025 13.1931 24.9251 13.1596 24.826 13.1249C24.6607 13.0675 24.4964 13.0084 24.3289 12.956C24.0514 12.8689 23.7708 12.7893 23.487 12.7173C23.4737 12.7139 23.4609 12.7095 23.4476 12.7062L28.0622 1.9375ZM10.9377 1.9375L15.5527 12.7064C15.4827 12.7239 15.4149 12.7469 15.3452 12.7652C15.2177 12.7988 15.0919 12.8362 14.9656 12.8728C14.712 12.9462 14.461 13.0257 14.2125 13.1113C14.0864 13.1548 13.9604 13.1979 13.8356 13.2444C13.5684 13.3437 13.3056 13.4518 13.0449 13.5651C12.9513 13.6057 12.8559 13.6426 12.7631 13.6851C12.4653 13.8212 12.1723 13.9666 11.8841 14.1211L6.6606 1.9375H10.9377ZM2.25471 1.9375H5.06274L10.6104 14.8772C10.5462 14.9196 10.4861 14.9685 10.4225 15.0119C10.2103 15.1566 10.0014 15.3064 9.79579 15.4613C9.68563 15.5444 9.57629 15.6274 9.46833 15.7134C9.25199 15.8858 9.04093 16.0655 8.8328 16.2495C8.74967 16.323 8.6639 16.3933 8.58238 16.4687C8.55947 16.4899 8.53509 16.5089 8.51232 16.5301L2.25471 1.9375ZM34.1875 28.375C34.188 30.7714 33.6022 33.1316 32.4811 35.2496C31.36 37.3676 29.7376 39.1791 27.7556 40.5261C25.7736 41.8731 23.492 42.7147 21.1101 42.9774C18.7281 43.2401 16.318 42.9159 14.09 42.0333C11.8621 41.1506 9.88399 39.7361 8.32825 37.9133C6.77252 36.0906 5.68643 33.9148 5.16473 31.5758C4.64303 29.2369 4.70157 26.8058 5.33524 24.4947C5.96891 22.1835 7.15846 20.0626 8.80013 18.3168C9.06572 18.0332 9.3407 17.7614 9.62505 17.5016C12.3279 15.0466 15.8486 13.6868 19.5 13.6875C20.4642 13.6884 21.4259 13.7841 22.3714 13.9734C22.4903 13.997 22.6064 14.0291 22.7242 14.0554C23.0565 14.1302 23.3859 14.2124 23.7093 14.3094C23.8216 14.3427 23.9327 14.3794 24.044 14.4153C24.4049 14.5328 24.7611 14.6616 25.1092 14.806C25.1606 14.8272 25.2125 14.8469 25.2634 14.8687C26.5416 15.4163 27.7357 16.1425 28.8101 17.0254C28.8326 17.0439 28.8546 17.0632 28.8769 17.0819C29.1922 17.3441 29.4942 17.6214 29.7864 17.9086C29.8399 17.9613 29.8939 18.0132 29.9467 18.0669C32.6645 20.8091 34.1888 24.5141 34.1875 28.375ZM30.4876 16.5303C29.8343 15.9241 29.1316 15.3733 28.3869 14.8836L33.9372 1.9375H36.7452L30.4876 16.5303Z" fill="#F5A914"/>
</svg>
