<svg width="39" height="45" fill="none" xmlns="http://www.w3.org/2000/svg"><path d="M19.5 15.89a12.484 12.484 0 1012.484 12.485A12.498 12.498 0 0019.5 15.891zm0 23.5a11.015 11.015 0 1111.016-11.015A11.028 11.028 0 0119.5 39.391z" fill="#F5A914"/><path d="M22.438 33.516h-2.204V22.5a.734.734 0 00-1.063-.657l-2.937 1.469a.735.735 0 00.657 1.314l1.875-.938v9.828h-2.203a.734.734 0 000 1.468h5.875a.734.734 0 000-1.468z" fill="#F5A914"/><path d="M38.472.8a.733.733 0 00-.613-.331H27.58a.734.734 0 00-.676.445l-4.926 11.495a15.504 15.504 0 00-4.947.017L12.098.914a.734.734 0 00-.675-.445H1.14a.734.734 0 00-.675 1.023l6.943 16.192a16.152 16.152 0 1024.184-.006l6.941-16.185a.735.735 0 00-.062-.694zm-10.41 1.138h4.277L27.116 14.12a15.893 15.893 0 00-1.378-.648 15.985 15.985 0 00-.615-.243c-.098-.037-.198-.07-.297-.105-.165-.057-.33-.117-.497-.169a15.715 15.715 0 00-.842-.239c-.013-.003-.026-.008-.04-.01l4.615-10.77zm-17.124 0l4.615 10.768c-.07.018-.138.04-.208.06-.127.033-.253.07-.38.107-.253.073-.504.153-.752.238-.127.044-.253.087-.377.133-.268.1-.53.208-.791.321-.094.04-.19.078-.282.12-.298.136-.59.282-.879.436L6.661 1.937h4.277zm-8.683 0h2.808l5.547 12.94c-.064.042-.124.09-.188.134a16.346 16.346 0 00-.954.701c-.216.173-.427.353-.635.537-.083.073-.17.143-.25.219a1.39 1.39 0 00-.07.061L2.254 1.937zm31.933 26.437A14.688 14.688 0 119.625 17.502a14.683 14.683 0 0112.746-3.529c.12.024.235.056.353.082.332.075.662.157.985.254.113.034.224.07.335.106.36.118.717.247 1.065.391.052.021.103.04.154.063a14.711 14.711 0 013.547 2.156l.067.057c.315.262.617.54.91.827.053.052.107.104.16.158a14.636 14.636 0 014.24 10.308zm-3.7-11.845a16.066 16.066 0 00-2.101-1.646l5.55-12.947h2.808L30.488 16.53z" fill="#F5A914"/></svg>