<svg width="46" height="46" fill="none" xmlns="http://www.w3.org/2000/svg"><path d="M31.921 12.587c-.679-.39-1.342-.587-1.866-.587-.521 0-.903.197-1.018.587-.236.78.68 2.046 2.04 2.827.68.391 1.343.586 1.866.586.52 0 .902-.195 1.02-.586.234-.781-.68-2.046-2.042-2.827zM21.183 34.146c-.523-.165-1.261-.198-2.09-.06-1.657.28-3.04 1.138-3.091 1.917-.026.39.287.688.813.852.525.165 1.264.196 2.091.058 1.657-.278 3.041-1.135 3.093-1.917.026-.39-.288-.687-.816-.85zm7-1c-.524-.164-1.265-.198-2.092-.059-1.655.278-3.039 1.134-3.09 1.916-.024.39.289.687.814.852.525.164 1.265.196 2.092.059 1.66-.279 3.039-1.135 3.092-1.917.023-.39-.29-.686-.816-.851zm7.137-2.001c-.437-.164-1.055-.197-1.745-.058-1.379.278-2.533 1.134-2.574 1.917-.02.39.24.687.678.85.437.165 1.055.197 1.745.059 1.381-.278 2.532-1.135 2.575-1.915.02-.391-.241-.688-.68-.853zM14.848 17.322c-.51.345-1.004.953-1.366 1.74-.719 1.574-.622 3.267.214 3.786.42.259.946.177 1.455-.169.512-.345 1.007-.953 1.367-1.74.718-1.573.623-3.268-.214-3.787-.42-.26-.946-.177-1.456.17zM6.387 15.27c-.384.287-.755.792-1.025 1.448-.54 1.311-.468 2.724.162 3.155.313.217.707.147 1.09-.141.383-.288.754-.794 1.024-1.45.54-1.31.468-2.723-.16-3.156-.315-.215-.709-.146-1.09.143z" fill="#F5A914"/><path d="M45.764 25.854L40.738 10.7c-.759-2.29-3.146-4.68-5.437-5.438L20.144.235c-.946-.314-1.796-.312-2.451-.003-.708.192-1.518.497-2.348.884-1.133.528-2.532 1.33-3.125 2.03a3.734 3.734 0 00-.194.178L1.86 13.492C.28 15.07-.422 18.075.26 20.334l4.417 14.631c.08.268.18.52.297.75.356 1.083 1.814 2.6 2.262 3.048.449.449 1.968 1.91 3.05 2.266.23.114.483.214.75.294l14.63 4.418c.567.172 1.19.259 1.853.259 1.901 0 3.859-.73 4.987-1.858l10.168-10.169c.064-.064.122-.129.18-.194.698-.596 1.501-1.994 2.028-3.124a15.07 15.07 0 00.886-2.354c.31-.659.308-1.502-.005-2.447zM7.29 36.621c-.557-.678-.852-1.18-.911-1.388l-.057-.141a3.187 3.187 0 01-.222-.555L1.68 19.905c-.52-1.721.043-4.178 1.23-5.364L13.076 4.373c.052-.053.107-.1.16-.145l.098-.103c.174-.22.643-.576 1.318-.974.643.204 1.19.81 1.487 1.797l4.418 14.632c.601 1.988-.032 4.722-1.415 6.104L8.979 35.852c-.554.552-1.141.792-1.688.77zm34.582-3.956l-.105.102c-.045.052-.09.105-.143.157L31.458 43.093c-.85.85-2.434 1.422-3.937 1.422a4.928 4.928 0 01-1.426-.195l-14.63-4.417a3.222 3.222 0 01-.555-.224l-.142-.055c-.208-.058-.71-.355-1.388-.912-.024-.547.215-1.134.77-1.688l10.164-10.167c1.383-1.383 4.116-2.016 6.104-1.415l14.63 4.418c.988.298 1.595.846 1.798 1.49-.396.673-.755 1.141-.974 1.315zm2.54-4.968l-.058.154c-.072.273-.17.577-.285.891-.411.08-.917.036-1.504-.159L27.41 23.559c-2.06-.682-4.286-2.907-4.966-4.967L17.416 3.434c-.194-.586-.238-1.091-.159-1.504.313-.113.614-.212.887-.284l.156-.06c.133-.07.304-.104.508-.104.255 0 .547.054.87.16l15.156 5.026c1.83.607 3.888 2.667 4.495 4.497l5.026 15.155c.19.578.212 1.079.057 1.377z" fill="#F5A914"/></svg>