<svg width="46" height="46" viewBox="0 0 46 46" fill="none" xmlns="http://www.w3.org/2000/svg">
<path d="M31.9211 12.5872C31.242 12.1972 30.5789 12 30.0548 12C29.5337 12 29.1524 12.1972 29.0369 12.5872C28.8014 13.3678 29.7175 14.6329 31.0772 15.4136C31.7578 15.805 32.4202 16 32.9428 16C33.4639 16 33.8452 15.805 33.9637 15.4136C34.1969 14.6329 33.2823 13.3678 31.9211 12.5872Z" fill="#F5A914"/>
<path d="M21.1834 34.1463C20.6598 33.9812 19.9218 33.9483 19.0921 34.0863C17.436 34.3658 16.0526 35.2235 16.0015 36.0034C15.9755 36.3929 16.2889 36.691 16.815 36.8547C17.3402 37.0198 18.079 37.0512 18.9062 36.9126C20.5632 36.6352 21.9474 35.7782 21.9985 34.9962C22.0245 34.6067 21.7111 34.3093 21.1834 34.1463Z" fill="#F5A914"/>
<path d="M28.1835 33.1456C27.6588 32.9819 26.9182 32.9476 26.0914 33.087C24.4355 33.3651 23.0525 34.2209 23.0013 35.0031C22.977 35.3935 23.2896 35.6902 23.8151 35.8546C24.3405 36.019 25.0804 36.0512 25.9071 35.9139C27.5663 35.6351 28.946 34.7786 28.9988 33.9972C29.0216 33.6068 28.7097 33.3108 28.1835 33.1456Z" fill="#F5A914"/>
<path d="M35.3194 31.1449C34.8829 30.9812 34.2651 30.9483 33.5748 31.087C32.1962 31.3651 31.0424 32.2215 31.0011 33.0035C30.9808 33.3931 31.2407 33.6905 31.6792 33.8549C32.1164 34.0193 32.7336 34.0515 33.4239 33.9128C34.8051 33.6347 35.9563 32.7783 35.9989 31.9977C36.0192 31.6067 35.758 31.31 35.3194 31.1449Z" fill="#F5A914"/>
<path d="M14.8476 17.3215C14.3386 17.6669 13.8437 18.2747 13.4817 19.0618C12.7634 20.6359 12.8596 22.3289 13.6957 22.8479C14.1161 23.107 14.6421 23.0247 15.1511 22.6793C15.663 22.3338 16.1579 21.726 16.518 20.9398C17.2363 19.3665 17.1411 17.671 16.304 17.152C15.8845 16.8929 15.3576 16.9752 14.8476 17.3215Z" fill="#F5A914"/>
<path d="M6.38731 15.2691C6.00349 15.557 5.63239 16.0622 5.36237 16.7181C4.82234 18.0291 4.89373 19.4421 5.52424 19.8732C5.83667 20.0898 6.2311 20.0199 6.61492 19.732C6.99662 19.4441 7.36772 18.9383 7.63773 18.2824C8.17777 16.972 8.10567 15.559 7.47728 15.1259C7.16344 14.9106 6.76901 14.9799 6.38731 15.2691Z" fill="#F5A914"/>
<path d="M45.7636 25.8541L40.7381 10.6985C39.9791 8.40925 37.5917 6.01953 35.3009 5.26053L20.144 0.234986C19.198 -0.0785837 18.3477 -0.0770503 17.693 0.231919C16.9846 0.424354 16.175 0.72949 15.3455 1.11589C14.2116 1.64413 12.8132 2.44684 12.2198 3.14528C12.1531 3.20252 12.0884 3.2621 12.0259 3.32391L1.86069 13.4915C0.280595 15.0709 -0.422433 18.0762 0.260662 20.3341L4.67817 34.9653C4.75867 35.2328 4.85833 35.4851 4.97487 35.7158C5.3306 36.7984 6.78879 38.3156 7.23652 38.7634C7.68578 39.2119 9.20531 40.6739 10.2878 41.0289C10.5178 41.1431 10.7701 41.2428 11.0361 41.3233L25.6663 45.7409C26.2336 45.9134 26.8569 46 27.5201 46H27.5209C29.4214 46 31.3787 45.2701 32.5072 44.1416L42.6747 33.9732C42.7391 33.9088 42.7974 33.8444 42.8541 33.7792C43.5533 33.1835 44.356 31.7851 44.8827 30.655C45.2714 29.8217 45.5765 29.0098 45.7689 28.3006C46.0787 27.642 46.0771 26.7987 45.7636 25.8541ZM7.29018 36.6213C6.73282 35.9435 6.43766 35.4414 6.37862 35.2328L6.32189 35.0918C6.23054 34.9141 6.1561 34.7283 6.09956 34.5367L1.68052 19.9047C1.15996 18.1836 1.72269 15.7271 2.90948 14.5411L13.0769 4.37272C13.1291 4.31982 13.1843 4.27382 13.2372 4.22782L13.3353 4.12508C13.5086 3.90582 13.9785 3.54855 14.6532 3.15141C15.2964 3.35458 15.8438 3.96178 16.1405 4.94773L20.558 19.5797C21.1591 21.5677 20.5258 24.3016 19.1435 25.6839L8.97761 35.8515C8.42408 36.4043 7.83681 36.6443 7.29018 36.6213ZM41.872 32.6653L41.767 32.7672C41.7217 32.8194 41.6773 32.8723 41.6244 32.9244L31.4584 43.0928C30.6074 43.9438 29.0243 44.515 27.5209 44.515H27.5201C27.038 44.5201 26.5579 44.4545 26.0949 44.3202L11.4647 39.9026C11.2731 39.8456 11.0873 39.7709 10.9096 39.6795L10.7678 39.6243C10.56 39.5661 10.0578 39.2694 9.3801 38.712C9.35634 38.1646 9.59477 37.5781 10.1491 37.0238L20.3142 26.8569C21.6973 25.4739 24.4297 24.8406 26.4184 25.4417L41.0486 29.86C42.0361 30.1582 42.6433 30.7064 42.8457 31.3496C42.4501 32.0228 42.0913 32.4912 41.872 32.6653ZM44.4127 27.6972L44.3544 27.8505C44.2824 28.1243 44.1835 28.4279 44.0692 28.7422C43.6576 28.8212 43.1516 28.7782 42.5651 28.5835L27.4089 23.5579C25.3481 22.8756 23.1233 20.6507 22.4425 18.5907L17.417 3.43431C17.2231 2.84781 17.1794 2.34257 17.2583 1.9301C17.5711 1.8174 17.8724 1.7185 18.1453 1.64643L18.301 1.58586C18.4336 1.51686 18.6046 1.4816 18.8093 1.4816C19.0638 1.4816 19.3559 1.53603 19.6787 1.6426L34.8348 6.66814C36.6656 7.27534 38.7233 9.33463 39.3297 11.1647L44.356 26.3203C44.5461 26.8983 44.5676 27.399 44.4127 27.6972Z" fill="#F5A914"/>
</svg>
