<svg width="41" height="47" viewBox="0 0 41 47" fill="none" xmlns="http://www.w3.org/2000/svg">
<path d="M27.0948 18.2178L23.3557 17.4153L21.5045 13.7603C21.3941 13.5424 21.2326 13.3608 21.0368 13.2343C20.841 13.1079 20.6179 13.0413 20.3907 13.0413C20.1636 13.0413 19.9405 13.1079 19.7447 13.2343C19.5489 13.3608 19.3874 13.5424 19.277 13.7603L17.4258 17.4153L13.686 18.2178C13.4632 18.2659 13.256 18.3783 13.0861 18.5437C12.9161 18.709 12.7895 18.9212 12.7193 19.1583C12.6492 19.3954 12.638 19.6487 12.687 19.8921C12.736 20.1355 12.8433 20.3602 12.998 20.5427L15.5932 23.6055L15.1334 27.7572C15.1064 28.0046 15.1401 28.2554 15.231 28.4837C15.3218 28.712 15.4666 28.9096 15.6503 29.056C15.834 29.2024 16.0499 29.2923 16.2759 29.3165C16.5018 29.3407 16.7295 29.2983 16.9355 29.1936L20.3907 27.4308L23.846 29.1934C24.052 29.2984 24.2799 29.341 24.506 29.3169C24.7321 29.2928 24.9482 29.2028 25.132 29.0563C25.3157 28.9097 25.4605 28.7119 25.5512 28.4834C25.642 28.2548 25.6754 28.0038 25.6481 27.7563L25.1883 23.6054L27.7828 20.5434C27.9377 20.3609 28.0453 20.1362 28.0944 19.8927C28.1435 19.6492 28.1324 19.3957 28.0622 19.1585C27.992 18.9212 27.8653 18.7089 27.6953 18.5435C27.5252 18.3781 27.3179 18.2657 27.0948 18.2178V18.2178ZM24.1165 22.6039C23.9901 22.7528 23.8949 22.9303 23.8376 23.1239C23.7803 23.3175 23.7623 23.5225 23.7848 23.7245L24.2233 27.684L20.9298 26.0042C20.7616 25.9171 20.578 25.8718 20.392 25.8715C20.2061 25.8713 20.0224 25.916 19.854 26.0027L16.5584 27.684L16.9969 23.7238C17.0194 23.5218 17.0013 23.317 16.944 23.1235C16.8867 22.9301 16.7916 22.7527 16.6652 22.6039L14.1892 19.6829L17.7553 18.9172C17.9375 18.8784 18.1098 18.7963 18.26 18.6767C18.4103 18.557 18.5348 18.4027 18.6249 18.2246L20.3907 14.7384L22.1564 18.2246C22.2465 18.4027 22.371 18.557 22.5212 18.6766C22.6714 18.7963 22.8436 18.8784 23.0258 18.9172L26.5922 19.6829L24.1165 22.6039Z" fill="#F5A914"/>
<path d="M37.2657 10.8039H33.7501V1.54354C33.75 1.42647 33.7257 1.31096 33.6789 1.20574C33.6321 1.10051 33.5642 1.00833 33.4802 0.936172C33.3962 0.86401 33.2984 0.813753 33.1941 0.789201C33.0898 0.76465 32.9818 0.766446 32.8782 0.794456L21.0048 4.01628L7.92296 0.0280076C7.81849 -0.0037392 7.70875 -0.00857092 7.60229 0.0138892C7.49584 0.0363494 7.39555 0.0854943 7.30924 0.157492C7.22294 0.229489 7.15296 0.322393 7.10475 0.428958C7.05654 0.535523 7.03142 0.652869 7.03133 0.771845V10.8039H3.51571C2.58364 10.8051 1.69007 11.212 1.031 11.9353C0.371926 12.6587 0.00117795 13.6394 8.0057e-05 14.6624V24.6944C-0.00516203 25.6256 0.247145 26.5367 0.723665 27.3072C1.20019 28.0777 1.87849 28.6714 2.66896 29.0099C3.45944 29.3484 4.32487 29.4157 5.15092 29.2029C5.97697 28.9901 6.72477 28.5072 7.2955 27.8182C7.73816 29.8224 8.73209 31.6286 10.1423 32.9915C11.5526 34.3545 13.3108 35.208 15.1783 35.4364L13.575 40.1283H9.14071C8.97425 40.1283 8.81319 40.1932 8.6862 40.3113C8.55922 40.4294 8.47453 40.5932 8.44721 40.7734L7.74409 45.4035C7.72726 45.5141 7.73259 45.6273 7.75969 45.7354C7.7868 45.8434 7.83503 45.9437 7.90104 46.0292C7.96705 46.1147 8.04925 46.1834 8.14191 46.2305C8.23457 46.2776 8.33547 46.3019 8.43758 46.3019H32.3438C32.4459 46.3019 32.5468 46.2776 32.6395 46.2305C32.7322 46.1834 32.8144 46.1147 32.8804 46.0292C32.9464 45.9437 32.9946 45.8434 33.0217 45.7354C33.0488 45.6273 33.0542 45.5141 33.0373 45.4035L32.3342 40.7734C32.3069 40.5932 32.2222 40.4294 32.0952 40.3113C31.9682 40.1932 31.8072 40.1283 31.6407 40.1283H27.2064L25.6033 35.4364C27.4707 35.2081 29.2289 34.3545 30.6392 32.9917C32.0494 31.6288 33.0433 29.8227 33.4861 27.8185C34.0568 28.5075 34.8046 28.9903 35.6307 29.2031C36.4567 29.4158 37.3222 29.3485 38.1126 29.01C38.9031 28.6715 39.5813 28.0777 40.0578 27.3072C40.5343 26.5367 40.7866 25.6256 40.7813 24.6944V14.6624C40.7802 13.6394 40.4095 12.6587 39.7504 11.9353C39.0914 11.212 38.1978 10.8051 37.2657 10.8039ZM7.03133 21.253C6.26028 20.4882 5.25811 20.0646 4.21883 20.0642C4.03235 20.0642 3.85351 20.1455 3.72165 20.2903C3.58978 20.435 3.51571 20.6313 3.51571 20.8359C3.51571 21.0406 3.58978 21.2369 3.72165 21.3816C3.85351 21.5263 4.03235 21.6076 4.21883 21.6076C4.96451 21.6085 5.67943 21.934 6.20671 22.5127C6.73398 23.0914 7.03055 23.876 7.03133 24.6944C7.0215 25.5097 6.72203 26.2886 6.1967 26.8652C5.67137 27.4417 4.96169 27.7704 4.21883 27.7812C3.47313 27.7804 2.75817 27.4549 2.23087 26.8762C1.70358 26.2975 1.40704 25.5128 1.40633 24.6944V14.6624C1.40694 14.0486 1.62938 13.4601 2.02483 13.0261C2.42028 12.5921 2.95645 12.348 3.51571 12.3473H7.03133V21.253ZM31.045 41.6717L31.5137 44.7585H9.26776L9.73639 41.6717H31.045ZM25.7043 40.1283H15.0771L16.6592 35.4981H24.1223L25.7043 40.1283ZM32.3438 25.4661C32.3415 27.7166 31.5259 29.8743 30.0759 31.4657C28.6259 33.057 26.66 33.9522 24.6095 33.9548H16.172C14.1214 33.9522 12.1555 33.057 10.7055 31.4657C9.25552 29.8743 8.43991 27.7166 8.43758 25.4661V1.78693L20.7845 5.55157C20.79 5.55342 20.7943 5.55775 20.7999 5.55929L31.9431 8.95375L32.3438 9.07583V25.4661ZM32.3438 7.47325L23.7637 4.8572L32.3438 2.52923V7.47325ZM39.3751 24.6944C39.3744 25.5128 39.0779 26.2974 38.5507 26.8761C38.0234 27.4548 37.3086 27.7803 36.5629 27.7812C35.82 27.7705 35.1103 27.4419 34.5848 26.8653C34.0594 26.2887 33.7599 25.5098 33.7501 24.6944C33.7509 23.876 34.0474 23.0914 34.5747 22.5127C35.102 21.934 35.8169 21.6085 36.5626 21.6076C36.7491 21.6076 36.9279 21.5263 37.0598 21.3816C37.1916 21.2369 37.2657 21.0406 37.2657 20.8359C37.2657 20.6313 37.1916 20.435 37.0598 20.2903C36.9279 20.1455 36.7491 20.0642 36.5626 20.0642C35.5233 20.0646 34.5211 20.4882 33.7501 21.253V12.3473H37.2657C37.825 12.348 38.3611 12.5921 38.7566 13.0261C39.152 13.4601 39.3745 14.0486 39.3751 14.6624V24.6944Z" fill="#F5A914"/>
</svg>
