<svg width="41" height="47" fill="none" xmlns="http://www.w3.org/2000/svg"><path d="M27.095 18.218l-3.74-.803-1.85-3.655a1.34 1.34 0 00-.468-.526 1.19 1.19 0 00-.646-.193c-.227 0-.45.067-.646.193a1.349 1.349 0 00-.468.526l-1.851 3.655-3.74.803c-.223.048-.43.16-.6.326-.17.165-.296.377-.367.614a1.53 1.53 0 00-.032.734c.049.244.156.468.311.65l2.595 3.063-.46 4.152c-.027.248.007.498.098.727.09.228.236.426.42.572a1.175 1.175 0 001.285.138l3.455-1.763 3.455 1.762a1.175 1.175 0 001.286-.137c.184-.146.328-.344.42-.573.09-.228.123-.48.096-.727l-.46-4.15 2.595-3.063c.155-.182.262-.407.311-.65a1.53 1.53 0 00-.032-.735 1.418 1.418 0 00-.367-.614 1.234 1.234 0 00-.6-.326zm-2.979 4.386a1.43 1.43 0 00-.278.52 1.525 1.525 0 00-.053.6l.438 3.96-3.293-1.68a1.172 1.172 0 00-1.076-.001l-3.296 1.681.439-3.96a1.524 1.524 0 00-.053-.6 1.43 1.43 0 00-.279-.52l-2.476-2.921 3.566-.766a1.21 1.21 0 00.505-.24c.15-.12.275-.274.365-.452l1.766-3.487 1.765 3.487c.09.178.215.332.365.452s.323.201.505.24l3.566.766-2.476 2.92z" fill="#F5A914"/><path d="M37.266 10.804H33.75v-9.26a.834.834 0 00-.071-.338.763.763 0 00-.199-.27.678.678 0 00-.286-.147.643.643 0 00-.316.005L21.005 4.016 7.923.028a.643.643 0 00-.32-.014.675.675 0 00-.294.143.761.761 0 00-.204.272.835.835 0 00-.074.343v10.032H3.516c-.932.001-1.826.408-2.485 1.131-.66.724-1.03 1.704-1.03 2.727v10.032a4.926 4.926 0 00.723 2.613 4.288 4.288 0 001.945 1.703c.79.338 1.656.406 2.482.193a4.134 4.134 0 002.144-1.385c.443 2.004 1.437 3.81 2.847 5.174 1.41 1.363 3.169 2.216 5.036 2.444l-1.603 4.692H9.141a.667.667 0 00-.455.183.793.793 0 00-.239.462l-.703 4.63a.845.845 0 00.016.332.8.8 0 00.141.294.714.714 0 00.24.201.651.651 0 00.297.072h23.906a.652.652 0 00.295-.072.714.714 0 00.241-.2.799.799 0 00.142-.295.843.843 0 00.015-.331l-.703-4.63a.792.792 0 00-.239-.463.667.667 0 00-.454-.183h-4.435l-1.603-4.692c1.868-.228 3.626-1.081 5.036-2.444 1.41-1.363 2.404-3.17 2.847-5.173a4.133 4.133 0 002.145 1.384 3.844 3.844 0 002.482-.193 4.287 4.287 0 001.945-1.703 4.92 4.92 0 00.723-2.613V14.662c0-1.023-.371-2.003-1.03-2.727-.66-.723-1.553-1.13-2.485-1.131zM7.03 21.253c-.77-.765-1.773-1.188-2.812-1.189a.673.673 0 00-.497.226.811.811 0 00-.206.546c0 .205.074.4.206.546.132.144.31.226.497.226.746 0 1.46.326 1.988.905a3.25 3.25 0 01.824 2.181 3.287 3.287 0 01-.834 2.171c-.526.577-1.235.905-1.978.916-.746 0-1.46-.326-1.988-.905a3.249 3.249 0 01-.825-2.182V14.662c0-.613.223-1.202.619-1.636a2.022 2.022 0 011.49-.679H7.03v8.906zm24.014 20.419l.469 3.087H9.268l.468-3.087h21.309zm-5.34-1.544H15.076l1.582-4.63h7.463l1.582 4.63zm6.639-14.662c-.002 2.25-.818 4.408-2.268 6-1.45 1.591-3.416 2.486-5.466 2.489h-8.438c-2.05-.003-4.017-.898-5.466-2.49-1.45-1.59-2.266-3.748-2.268-5.999V1.786l12.347 3.766c.005.001.01.006.015.007l11.143 3.395.4.122v16.39zm0-17.993l-8.58-2.616 8.58-2.328v4.944zm7.031 17.221c0 .819-.297 1.603-.824 2.182-.528.579-1.242.904-1.988.905-.743-.01-1.453-.34-1.978-.916a3.286 3.286 0 01-.835-2.17c0-.819.297-1.604.825-2.182.527-.579 1.242-.905 1.988-.905a.673.673 0 00.497-.226.812.812 0 00.206-.546.812.812 0 00-.206-.546.673.673 0 00-.497-.226c-1.04 0-2.042.424-2.813 1.189v-8.906h3.516a2.018 2.018 0 011.49.68c.396.433.618 1.022.62 1.635v10.032z" fill="#F5A914"/></svg>