<svg width="39" height="40" fill="none" xmlns="http://www.w3.org/2000/svg"><path d="M26.852 12.95l-4.041-.775-2.015-3.625a1.268 1.268 0 00-2.217 0l-1.985 3.603-4.07.797a1.27 1.27 0 00-.685 2.108l2.813 3.001-.5 4.117a1.267 1.267 0 001.793 1.303l3.723-1.748 3.762 1.748a1.267 1.267 0 001.793-1.303l-.512-4.081 2.825-3.037a1.268 1.268 0 00-.684-2.108zm-3.102 4.252a1.27 1.27 0 00-.33 1.015l.49 4.039-3.688-1.715a1.265 1.265 0 00-1.069 0l-3.688 1.715.49-4.038a1.266 1.266 0 00-.33-1.017l-2.77-2.979 3.992-.78a1.267 1.267 0 00.864-.629l1.964-3.578 1.99 3.578a1.267 1.267 0 00.864.628l3.992.781-2.771 2.98z" fill="#F5A914"/><path d="M39.251 30.487a.657.657 0 00-.532-.273H37.48a6.544 6.544 0 00-1.735-10.461 16.406 16.406 0 10-32.12 0 6.543 6.543 0 00-1.732 10.461H.656a.656.656 0 00-.622.864l1.243 3.73-1.243 3.73a.656.656 0 00.622.864H12.47a.656.656 0 00.656-.656v-3.938H26.25v3.938a.657.657 0 00.656.656H38.72a.655.655 0 00.622-.864l-1.243-3.73 1.243-3.73a.654.654 0 00-.09-.59zm-4.07-8.674c.069-.197.135-.394.196-.594.016-.051.035-.1.05-.152a5.246 5.246 0 01-.08 9.147h-1.222v-4.593a.647.647 0 00-.08-.298.621.621 0 00-.278-.278.624.624 0 00-.063-.033c-.01-.003-.017-.01-.026-.013l.025-.045c.033-.053.061-.11.094-.163.168-.283.33-.57.48-.862.07-.134.133-.271.198-.407.102-.212.202-.425.295-.642a15.928 15.928 0 00.41-1.067zM7.997 6.9a15.085 15.085 0 0125.992 14.346 14.84 14.84 0 01-.497 1.274c-.047.104-.09.21-.139.313-.187.4-.389.793-.611 1.174-.017.028-.036.054-.052.081-.178.3-.373.59-.573.877h-3.576c.026-.026.048-.056.074-.083.237-.25.464-.505.678-.77l.09-.118c.202-.258.393-.522.573-.794.024-.036.05-.07.073-.107.185-.286.355-.58.516-.88l.097-.186c.154-.3.296-.606.425-.918l.06-.157c.123-.311.235-.626.332-.947l.023-.072c.099-.333.179-.672.249-1.014.013-.065.027-.13.039-.196.063-.335.112-.674.148-1.017l.016-.188a12.5 12.5 0 00.051-1.084A12.297 12.297 0 007.467 15.05c-.2 1.77-.014 3.56.546 5.251.13.39.284.767.45 1.139a12.486 12.486 0 00.684 1.323c.026.042.055.082.08.124.193.31.4.61.62.902.055.073.109.148.166.22.247.314.508.618.785.907.015.016.027.033.041.048H7.258a14.813 14.813 0 01-.35-.536c-.11-.173-.223-.343-.325-.52-.14-.244-.265-.497-.391-.75-.084-.167-.175-.33-.253-.501-.13-.287-.24-.582-.352-.876-.056-.146-.12-.288-.172-.436-.15-.437-.28-.882-.391-1.335l-.01-.03A15.08 15.08 0 017.998 6.898zm20.278 16.378c-.12.149-.253.287-.38.43-.147.165-.29.333-.447.49-.14.139-.294.267-.443.4-.139.124-.276.25-.422.367H12.787c-.097-.078-.189-.16-.282-.24-.093-.08-.19-.16-.28-.243-.106-.098-.206-.201-.308-.303-.085-.085-.173-.168-.256-.256-.098-.105-.19-.215-.285-.324-.078-.09-.159-.178-.234-.27-.09-.112-.174-.23-.26-.345-.072-.095-.146-.188-.214-.285-.082-.119-.157-.241-.235-.362-.064-.1-.131-.198-.192-.3-.074-.123-.14-.252-.208-.378-.057-.105-.118-.207-.17-.313-.069-.136-.129-.276-.191-.415-.045-.101-.095-.2-.138-.302a10.984 10.984 0 1121.068-2.942c-.015.134-.047.263-.067.396-.041.276-.08.554-.142.824-.035.156-.088.306-.13.46-.068.24-.129.484-.211.72-.057.16-.13.314-.195.472-.089.22-.172.442-.276.654-.077.161-.171.313-.257.47-.11.2-.214.404-.336.597-.099.156-.213.303-.32.454-.128.183-.252.369-.393.544zM1.312 25.621a5.216 5.216 0 012.636-4.554c.054.186.12.366.18.55.034.1.065.2.1.3.156.438.329.869.52 1.291.037.082.079.161.118.242.168.354.349.701.543 1.042.057.101.113.202.172.302.04.067.076.137.117.204-.01.003-.017.01-.026.014a.626.626 0 00-.064.033.661.661 0 00-.358.576v4.593H4.028a5.226 5.226 0 01-2.716-4.593zm10.5 12.468H1.567l1.024-3.073a.648.648 0 000-.416l-1.024-3.073H5.25v2.625a.656.656 0 00.656.656h5.906v3.281zm.657-4.593H6.562v-7.22h26.25v7.22H12.47zm24.315 1.52l1.024 3.073H27.562v-3.28h5.907a.657.657 0 00.656-.657v-2.625h3.683L36.784 34.6a.649.649 0 000 .416z" fill="#F5A914"/></svg>