<svg width="39" height="40" viewBox="0 0 39 40" fill="none" xmlns="http://www.w3.org/2000/svg">
<path d="M26.8517 12.9497L22.811 12.1754L20.7955 8.55031C20.6857 8.35267 20.5251 8.18798 20.3303 8.07332C20.1354 7.95866 19.9135 7.89819 19.6874 7.89819C19.4613 7.89819 19.2394 7.95866 19.0445 8.07332C18.8497 8.18798 18.6891 8.35267 18.5793 8.55031L16.5939 12.1531L12.5238 12.9497C12.3019 12.9932 12.0957 13.0951 11.9264 13.245C11.7572 13.3949 11.6311 13.5873 11.5612 13.8023C11.4914 14.0173 11.4802 14.2471 11.529 14.4679C11.5778 14.6886 11.6847 14.8923 11.8386 15.0579L14.6515 18.059L14.1522 22.1757C14.1246 22.4002 14.1576 22.628 14.2478 22.8355C14.338 23.0429 14.482 23.2224 14.665 23.3554C14.848 23.4884 15.0632 23.57 15.2883 23.5918C15.5135 23.6136 15.7403 23.5747 15.9454 23.4792L19.6682 21.731L23.4301 23.4792C23.6351 23.5746 23.8618 23.6134 24.0869 23.5916C24.3119 23.5698 24.527 23.4883 24.7099 23.3554C24.8929 23.2225 25.0369 23.0431 25.1271 22.8358C25.2174 22.6285 25.2506 22.4008 25.2232 22.1764L24.7113 18.0945L27.5361 15.0579C27.6901 14.8924 27.797 14.6887 27.8458 14.468C27.8946 14.2473 27.8835 14.0176 27.8137 13.8026C27.7439 13.5876 27.6179 13.3952 27.4488 13.2452C27.2796 13.0953 27.0735 12.9933 26.8517 12.9497ZM23.7496 17.2016C23.6241 17.3367 23.5296 17.4977 23.4726 17.6731C23.4157 17.8486 23.3978 18.0343 23.4201 18.2174L23.9104 22.2555L20.2223 20.5409C20.0549 20.4629 19.8725 20.4226 19.6878 20.4226C19.5031 20.4226 19.3207 20.4629 19.1533 20.5409L15.4651 22.2555L15.9548 18.2177C15.9774 18.0344 15.9596 17.8483 15.9027 17.6726C15.8458 17.4969 15.7512 17.3358 15.6254 17.2005L12.8549 14.2223L16.8469 13.4414C17.0281 13.406 17.1993 13.3314 17.3487 13.2229C17.498 13.1143 17.6218 12.9745 17.7114 12.813L19.6751 9.23478L21.6643 12.8134C21.7539 12.9747 21.8778 13.1145 22.0271 13.223C22.1764 13.3315 22.3477 13.406 22.5288 13.4414L26.5208 14.2223L23.7496 17.2016Z" fill="#F5A914"/>
<path d="M39.2512 30.4871C39.1904 30.4027 39.1104 30.334 39.0178 30.2865C38.9252 30.2391 38.8227 30.2144 38.7187 30.2144H37.4808C38.2092 29.4789 38.7527 28.5811 39.0667 27.5947C39.3806 26.6084 39.456 25.5616 39.2867 24.5404C39.1174 23.5192 38.7083 22.5527 38.0928 21.7204C37.4774 20.8881 36.6733 20.2137 35.7465 19.7526C36.244 17.3655 36.2032 14.8974 35.6269 12.5281C35.0506 10.1587 33.9534 7.94763 32.415 6.05567C30.8767 4.16371 28.9359 2.63848 26.734 1.59094C24.532 0.543406 22.1242 -8.96653e-05 19.6858 1.10956e-08C17.2473 8.96875e-05 14.8396 0.543762 12.6377 1.59146C10.4358 2.63916 8.49515 4.16454 6.95695 6.05661C5.41875 7.94868 4.32168 10.1599 3.74556 12.5293C3.16944 14.8987 3.12876 17.3667 3.62648 19.7538C2.7 20.2151 1.89616 20.8895 1.28102 21.7218C0.665873 22.5542 0.256967 23.5205 0.087891 24.5416C-0.0811846 25.5626 -0.00560487 26.6092 0.308421 27.5954C0.622448 28.5816 1.16596 29.4791 1.89431 30.2144H0.656161C0.552161 30.2144 0.449641 30.2391 0.357063 30.2865C0.264485 30.3338 0.184504 30.4026 0.123719 30.487C0.0629347 30.5713 0.0230902 30.669 0.00747382 30.7718C-0.00814257 30.8746 0.000917015 30.9797 0.033905 31.0783L1.27717 34.8082L0.033905 38.538C0.000917015 38.6367 -0.00814257 38.7417 0.00747382 38.8446C0.0230902 38.9474 0.0629347 39.045 0.123719 39.1294C0.184504 39.2138 0.264485 39.2825 0.357063 39.3299C0.449641 39.3773 0.552161 39.402 0.656161 39.4019H12.4687C12.6427 39.4019 12.8096 39.3328 12.9327 39.2097C13.0558 39.0866 13.1249 38.9197 13.1249 38.7457V34.8082H26.2499V38.7457C26.2499 38.9197 26.3191 39.0866 26.4421 39.2097C26.5652 39.3328 26.7321 39.4019 26.9062 39.4019H38.7187C38.8227 39.402 38.9252 39.3773 39.0178 39.3299C39.1103 39.2825 39.1903 39.2138 39.2511 39.1294C39.3119 39.045 39.3517 38.9474 39.3673 38.8446C39.383 38.7417 39.3739 38.6367 39.3409 38.538L38.0977 34.8082L39.3409 31.0783C39.374 30.9797 39.3831 30.8747 39.3675 30.7719C39.3519 30.6691 39.312 30.5714 39.2512 30.4871V30.4871ZM35.1809 21.8133C35.2495 21.6164 35.3161 21.4188 35.377 21.2191C35.3926 21.168 35.4121 21.1186 35.4272 21.0673C36.2348 21.5308 36.9046 22.2009 37.3676 23.0088C37.8307 23.8167 38.0704 24.7333 38.0622 25.6645C38.054 26.5957 37.7981 27.5079 37.3208 28.3075C36.8436 29.1071 36.1621 29.7652 35.3464 30.2144H34.1249V25.6207C34.1238 25.5404 34.1078 25.4611 34.0777 25.3867C34.068 25.3647 34.0571 25.3434 34.0449 25.3227C33.9848 25.2024 33.8873 25.1049 33.7671 25.0448C33.7466 25.0327 33.7254 25.0217 33.7036 25.012C33.6945 25.0085 33.6871 25.0017 33.6778 24.9989C33.6867 24.9842 33.6943 24.969 33.7032 24.9543C33.736 24.9006 33.7644 24.8448 33.7967 24.7908C33.9653 24.5077 34.1268 24.221 34.2776 23.9287C34.3471 23.7945 34.4098 23.6577 34.4753 23.5218C34.5773 23.3098 34.6771 23.0969 34.7697 22.8804C34.8431 22.7097 34.9118 22.5372 34.9792 22.364C35.0497 22.1817 35.1169 21.9982 35.1809 21.8133ZM7.99665 6.89865C10.1626 4.23742 13.1712 2.39415 16.5258 1.673C19.8805 0.951849 23.3807 1.39592 26.449 2.93193C29.5173 4.46793 31.9702 7.00409 33.403 10.1219C34.8359 13.2397 35.1629 16.7528 34.3303 20.0815C34.2319 20.4759 34.117 20.8636 33.9887 21.2454C33.9543 21.3476 33.9177 21.4488 33.881 21.5505C33.7629 21.8787 33.6317 22.2012 33.4913 22.5192C33.445 22.6235 33.4019 22.7292 33.3535 22.8325C33.1658 23.2319 32.9645 23.6248 32.7416 24.0064C32.7255 24.034 32.7063 24.06 32.69 24.0875C32.5124 24.3871 32.3166 24.6767 32.1174 24.9644H28.541C28.5673 24.9375 28.589 24.9077 28.6148 24.8806C28.8516 24.6317 29.0792 24.3758 29.2929 24.1102C29.3238 24.0717 29.3525 24.0318 29.3829 23.993C29.585 23.7355 29.7761 23.471 29.9561 23.1994C29.9801 23.1634 30.0057 23.1286 30.0293 23.0922C30.2144 22.806 30.3845 22.5112 30.5447 22.2113C30.5775 22.1495 30.6103 22.0879 30.6423 22.0255C30.7959 21.7256 30.9383 21.4201 31.0665 21.1082C31.0879 21.0561 31.1068 21.0032 31.1275 20.9507C31.2501 20.6399 31.362 20.3246 31.459 20.0037C31.4662 19.9797 31.475 19.9563 31.4821 19.9322C31.5806 19.5993 31.6607 19.2604 31.7307 18.9184C31.7438 18.8528 31.7579 18.7881 31.77 18.7224C31.8329 18.387 31.8821 18.0479 31.9175 17.7053C31.9241 17.6428 31.9282 17.58 31.9336 17.5174C31.9648 17.1587 31.9855 16.7976 31.9855 16.4329C31.9854 14.6523 31.5986 12.8929 30.8518 11.2764C30.1051 9.65987 29.0162 8.22481 27.6605 7.07039C26.3047 5.91596 24.7145 5.06972 22.9996 4.59014C21.2847 4.11057 19.4862 4.00911 17.7283 4.29277C15.9704 4.57643 14.295 5.23846 12.818 6.23308C11.3411 7.22769 10.0977 8.53119 9.17388 10.0534C8.25006 11.5757 7.66782 13.2804 7.46742 15.0498C7.26702 16.8191 7.45323 18.6109 8.01318 20.3012C8.1422 20.6903 8.29681 21.0679 8.46285 21.4396C8.50261 21.5286 8.54245 21.6168 8.58425 21.7048C8.75619 22.0664 8.94112 22.4211 9.14725 22.7631C9.17271 22.8054 9.20165 22.8453 9.22757 22.8872C9.41953 23.1971 9.6271 23.4969 9.84615 23.7887C9.90154 23.8625 9.95575 23.9367 10.0128 24.0093C10.2597 24.3233 10.5205 24.6267 10.7982 24.9165C10.8128 24.9317 10.8245 24.9493 10.8395 24.9642H7.25751C7.13584 24.7883 7.02126 24.6084 6.90773 24.4281C6.79886 24.2553 6.6846 24.0855 6.58302 23.9088C6.44238 23.6639 6.31809 23.4106 6.19176 23.1584C6.10796 22.9909 6.01654 22.8272 5.93904 22.6566C5.80917 22.3705 5.69833 22.0754 5.58663 21.781C5.53118 21.6347 5.46628 21.4929 5.41529 21.3447C5.26514 20.9082 5.13461 20.4634 5.0237 20.0104C5.02114 19.9999 5.01714 19.99 5.01471 19.9795C4.46853 17.7168 4.45352 15.3585 4.97085 13.0891C5.48818 10.8196 6.52381 8.70079 7.99665 6.89839V6.89865ZM28.2748 23.2774C28.1555 23.426 28.0219 23.5643 27.8945 23.7072C27.7476 23.8718 27.6051 24.0397 27.4476 24.1963C27.3073 24.3358 27.1536 24.464 27.0051 24.5966C26.8661 24.7207 26.7294 24.8465 26.5832 24.9641H12.7865C12.6903 24.8863 12.598 24.8049 12.5048 24.7243C12.4116 24.6437 12.3154 24.5646 12.2248 24.4809C12.1189 24.383 12.019 24.2798 11.9173 24.1783C11.832 24.093 11.744 24.0099 11.6614 23.9224C11.563 23.8174 11.4706 23.7069 11.3764 23.5981C11.2982 23.5077 11.2171 23.4197 11.1419 23.3271C11.0513 23.2156 10.9676 23.0986 10.8816 22.9835C10.8104 22.8882 10.7358 22.7952 10.6677 22.6976C10.5855 22.5795 10.5105 22.4569 10.433 22.3359C10.3691 22.2359 10.3018 22.1384 10.2408 22.0365C10.1671 21.9128 10.1012 21.7844 10.0325 21.6577C9.97596 21.5535 9.91545 21.4515 9.86223 21.3454C9.79398 21.2093 9.73433 21.0687 9.67192 20.9296C9.62657 20.8289 9.57683 20.7303 9.5345 20.6281C9.43388 20.3849 9.34187 20.1377 9.25848 19.8865C8.76075 18.3773 8.59645 16.778 8.77692 15.1991C8.95738 13.6202 9.47833 12.0993 10.3038 10.7413C11.1292 9.38331 12.2395 8.22063 13.5581 7.3335C14.8766 6.44637 16.3719 5.85592 17.9408 5.60292C19.5097 5.34991 21.1149 5.44038 22.6454 5.86807C24.176 6.29576 25.5955 7.05048 26.806 8.08015C28.0165 9.10981 28.9891 10.3899 29.6567 11.832C30.3244 13.2742 30.6711 14.844 30.673 16.4332C30.6729 16.8517 30.6492 17.27 30.602 17.6859C30.5869 17.8198 30.5552 17.9494 30.5353 18.0822C30.4938 18.3585 30.4553 18.6357 30.3933 18.9062C30.3576 19.062 30.3045 19.2117 30.2621 19.3656C30.1955 19.6067 30.1343 19.8499 30.0516 20.0851C29.9949 20.2463 29.9212 20.4001 29.8571 20.5583C29.7681 20.7777 29.6847 20.9995 29.5815 21.2124C29.5037 21.3732 29.4096 21.5254 29.3239 21.6822C29.2143 21.8827 29.11 22.086 28.9877 22.2794C28.8893 22.4352 28.7754 22.5816 28.6689 22.7327C28.5402 22.9157 28.4155 23.1019 28.2748 23.2774H28.2748ZM1.31241 25.6207C1.30877 24.6963 1.55086 23.7875 2.01391 22.9874C2.47695 22.1873 3.14431 21.5247 3.94765 21.0673C4.00212 21.2527 4.06814 21.4333 4.1289 21.6162C4.16224 21.7163 4.19289 21.8172 4.22806 21.9165C4.3836 22.3552 4.55693 22.7859 4.74808 23.2085C4.78522 23.2901 4.82683 23.3693 4.86561 23.4503C5.03374 23.8041 5.2148 24.1514 5.40879 24.4923C5.46601 24.593 5.52173 24.6943 5.58119 24.7941C5.62141 24.8615 5.65665 24.9314 5.69787 24.9983C5.68829 25.0015 5.6808 25.0084 5.67162 25.012C5.6499 25.0217 5.62875 25.0327 5.60829 25.0448C5.50211 25.0995 5.41272 25.1819 5.34962 25.2833C5.28652 25.3847 5.25206 25.5013 5.24991 25.6207V30.2144H4.02843C3.2048 29.7633 2.51792 29.0987 2.03998 28.2903C1.56205 27.4819 1.31072 26.5598 1.31241 25.6207V25.6207ZM11.8124 38.0894H1.56684L2.59092 35.0158C2.63646 34.8811 2.63646 34.7352 2.59092 34.6005L1.56684 31.5269H5.24991V34.1519C5.24991 34.326 5.31905 34.4929 5.44212 34.616C5.56519 34.739 5.73211 34.8082 5.90616 34.8082H11.8124V38.0894ZM12.4687 33.4957H6.56241V26.2769H32.8124V33.4957H12.4687ZM36.7839 35.0158L37.808 38.0894H27.5624V34.8082H33.4687C33.6427 34.8082 33.8096 34.739 33.9327 34.616C34.0558 34.4929 34.1249 34.326 34.1249 34.1519V31.5269H37.808L36.7842 34.6005C36.7386 34.7352 36.7385 34.8811 36.7839 35.0158V35.0158Z" fill="#F5A914"/>
</svg>
