<svg width="45" height="41" fill="none" xmlns="http://www.w3.org/2000/svg"><path d="M12.563.431L.969 6.228v34.147H44.03V10.562H24.156V6.229L12.563.431zm0 3.7l8.28 4.14v28.791H4.282V8.273l8.282-4.14zm-4.97 6.431v3.313h3.313v-3.313H7.594zm6.626 0v3.313h3.312v-3.313H14.22zm9.937 3.313H40.72v23.188H24.156V13.875zM7.594 17.188V20.5h3.312v-3.313H7.594zm6.625 0V20.5h3.312v-3.313H14.22zm13.25 0V20.5h3.312v-3.313H27.47zm6.625 0V20.5h3.312v-3.313h-3.312zm-26.5 6.625v3.312h3.312v-3.313H7.594zm6.625 0v3.312h3.312v-3.313H14.22zm13.25 0v3.312h3.312v-3.313H27.47zm6.625 0v3.312h3.312v-3.313h-3.312zm-26.5 6.625v3.312h3.312v-3.313H7.594zm6.625 0v3.312h3.312v-3.313H14.22zm13.25 0v3.312h3.312v-3.313H27.47zm6.625 0v3.312h3.312v-3.313h-3.312z" fill="#F5A914"/></svg>