<svg width="45" height="41" viewBox="0 0 45 41" fill="none" xmlns="http://www.w3.org/2000/svg">
<path d="M12.5625 0.431213L0.96875 6.22809V40.375H44.0312V10.5625H24.1562V6.22809L12.5625 0.431213ZM12.5625 4.13128L20.8438 8.2719V37.0625H4.28125V8.2719L12.5625 4.13128V4.13128ZM7.59375 10.5625V13.875H10.9062V10.5625H7.59375ZM14.2188 10.5625V13.875H17.5312V10.5625H14.2188ZM24.1562 13.875H40.7188V37.0625H24.1562V13.875ZM7.59375 17.1875V20.5H10.9062V17.1875H7.59375ZM14.2188 17.1875V20.5H17.5312V17.1875H14.2188ZM27.4688 17.1875V20.5H30.7812V17.1875H27.4688ZM34.0938 17.1875V20.5H37.4062V17.1875H34.0938ZM7.59375 23.8125V27.125H10.9062V23.8125H7.59375ZM14.2188 23.8125V27.125H17.5312V23.8125H14.2188ZM27.4688 23.8125V27.125H30.7812V23.8125H27.4688ZM34.0938 23.8125V27.125H37.4062V23.8125H34.0938ZM7.59375 30.4375V33.75H10.9062V30.4375H7.59375ZM14.2188 30.4375V33.75H17.5312V30.4375H14.2188ZM27.4688 30.4375V33.75H30.7812V30.4375H27.4688ZM34.0938 30.4375V33.75H37.4062V30.4375H34.0938Z" fill="#F5A914"/>
</svg>
