<svg width="25" height="26" viewBox="0 0 25 26" fill="none" xmlns="http://www.w3.org/2000/svg">
<path d="M24.223 7.92275C24.1307 3.57194 21.3421 0.761795 17.0199 0.669093C15.9924 0.572014 8.30565 0.570469 7.27732 0.669093C2.95689 0.762567 0.166025 3.56989 0.0739593 7.92275C-0.0224539 8.95611 -0.024244 16.699 0.0739593 17.7334C0.158864 22.0734 2.96635 24.9026 7.27732 24.9868C8.54016 25.045 8.95982 25.0587 12.1486 25.0587C15.3377 25.0587 15.7571 25.045 17.0199 24.9868C18.1981 24.933 19.1157 24.7553 19.9957 24.411C22.7571 23.3432 24.1616 20.7128 24.223 17.7334C24.3197 16.7003 24.3215 8.95637 24.223 7.92275ZM23.4804 17.6992C23.4057 21.6586 20.9202 24.1649 16.9859 24.2388C15.9824 24.3348 8.31536 24.3364 7.31108 24.2388C3.37911 24.1638 0.89053 21.6611 0.816877 17.6992C0.759848 16.4407 0.746294 16.0223 0.746294 12.828C0.835802 7.7497 0.159631 3.90593 4.57085 1.94297C5.37182 1.62959 6.21704 1.46736 7.31108 1.41689C8.56087 1.35972 8.9767 1.34633 12.1486 1.34633C15.3205 1.34633 15.7364 1.35972 16.9862 1.41714C18.0802 1.46736 18.9254 1.62959 19.7266 1.94323C24.1322 3.8982 23.4637 7.75511 23.5509 12.828C23.5507 16.0226 23.5371 16.4413 23.4804 17.6992Z" fill="#FABC1F"/>
<path d="M18.4377 8.18168C19.3543 8.18168 20.1 7.42796 20.1 6.50146C20.022 4.2779 16.8531 4.27842 16.7754 6.50146C16.7754 7.42796 17.5214 8.18168 18.4377 8.18168ZM18.4377 5.52165C19.7192 5.56285 19.7189 7.44083 18.4377 7.48178C17.1562 7.44058 17.1567 5.56259 18.4377 5.52165Z" fill="#FABC1F"/>
<path d="M21.7658 17.2499C21.554 17.2414 21.3868 17.4005 21.3775 17.6068C21.2341 20.6157 19.9032 21.9705 16.906 22.1098C15.9487 22.2033 8.38223 22.204 7.4245 22.1098C3.1258 21.9926 2.78209 18.9788 2.93656 15.2736C2.94346 14.2389 2.96187 11.584 2.95318 10.2041C2.95113 9.71995 2.21563 9.70656 2.20949 10.2041C2.22228 11.5887 2.20131 14.2296 2.19287 15.2658C2.14454 16.8176 2.18111 18.9613 2.64041 19.9607C4.22164 23.5935 7.65466 22.7873 12.1654 22.9271C17.6885 22.8645 21.7146 23.5675 22.1207 17.6408C22.1294 17.4343 21.9706 17.2592 21.7658 17.2499Z" fill="#FABC1F"/>
<path d="M21.6386 5.70512C20.1042 2.10211 16.5796 2.86175 12.1136 2.73892C6.67897 2.73686 2.43935 2.24142 2.15829 8.02549C2.14908 8.51861 2.8672 8.55132 2.90121 8.05948C3.04468 5.05054 4.37528 3.69555 7.37278 3.5565C8.33717 3.46251 15.8891 3.46199 16.8545 3.5565C19.8512 3.69246 21.1826 5.05311 21.3263 8.05948C21.3939 8.85389 21.432 12.991 21.3261 15.119C21.3171 15.6044 22.0434 15.6404 22.0693 15.1414L22.1383 12.8334C22.1383 9.66194 22.1263 9.28469 22.069 8.02549C22.0143 6.81393 21.8102 6.1488 21.6386 5.70512Z" fill="#FABC1F"/>
<path d="M5.75488 12.8273C5.75488 16.377 8.6304 19.2649 12.1649 19.2649C20.6687 18.9111 20.6662 6.74217 12.1649 6.38965C8.6304 6.38965 5.75488 9.27757 5.75488 12.8273ZM17.8321 12.8273C17.8321 15.9655 15.2898 18.5189 12.1649 18.5189C4.64626 18.206 4.64856 7.44696 12.1649 7.13538C15.2898 7.13564 17.8321 9.68906 17.8321 12.8273Z" fill="#FABC1F"/>
<path d="M12.1594 17.0758C17.7718 16.8422 17.7703 8.81065 12.1594 8.57812C9.82654 8.57812 7.92871 10.4842 7.92871 12.827C7.92871 15.1697 9.82654 17.0758 12.1594 17.0758ZM12.1594 9.31356C14.0884 9.31356 15.6576 10.8897 15.6576 12.827C15.6576 14.7642 14.0884 16.3406 12.1594 16.3406C7.51825 16.1472 7.51953 9.50591 12.1594 9.31356Z" fill="#FABC1F"/>
</svg>
