<svg width="220" height="18" viewBox="0 0 220 18" fill="none" xmlns="http://www.w3.org/2000/svg">
<path d="M19.6632 16.865V0.771693H16.3029V13.5784H11.5118V0.771693H8.15145V13.5784H3.33863V0.771693H0V16.865H19.6632ZM26.8032 7.07303H25.6542V0.771693H22.2722V16.865H25.6542V10.3597H26.6514L30.0334 16.2304L33.3504 17.3184L34.3043 14.145L32.4398 13.533L29.7299 8.81836L32.3314 4.10369L34.1959 3.49169L33.242 0.318359L29.925 1.40636L26.8032 7.07303ZM38.0891 0.771693L35.0757 3.62769V14.009L38.0891 16.865H44.5279L47.5413 14.009V3.62769L44.5279 0.771693H38.0891ZM44.181 5.01036V12.6264L43.1838 13.5784H39.4332L38.436 12.6264V5.01036L39.4332 4.05836H43.1838L44.181 5.01036ZM62.4194 0.771693H52.1867L50.8643 12.785L50.2139 13.465L48.1977 14.1904L49.2167 17.3184L52.2518 16.2304L54.1162 14.2357L55.2218 4.05836H59.0591V16.865H62.4194V0.771693ZM68.6808 0.771693L63.7162 16.2077L66.8814 17.3184L67.9437 13.7144H72.8215L73.9922 17.3184L77.1574 16.2077L72.1928 0.771693H68.6808ZM71.976 10.6544H68.8976L70.1116 6.89169L70.3934 5.21436H70.4802L70.762 6.89169L71.976 10.6544ZM85.6166 16.865H94.6786L97.4319 13.941V9.65703L94.6786 6.73303H88.9769V4.05836H96.5213V0.771693H85.6166V16.865ZM94.0715 10.949V12.649L93.1827 13.5784H88.9769V10.0197H93.1827L94.0715 10.949ZM103.253 0.771693L98.2889 16.2077L101.454 17.3184L102.516 13.7144H107.394L108.565 17.3184L111.73 16.2077L106.766 0.771693H103.253ZM106.549 10.6544H103.47L104.684 6.89169L104.966 5.21436H105.053L105.335 6.89169L106.549 10.6544ZM120.133 13.5784H116.621L115.753 12.6717V4.96503L116.621 4.05836H119.981L120.848 4.96503V6.66503H124.208V3.67303L121.433 0.771693H115.168L112.393 3.67303V13.9637L115.168 16.865H121.585L124.512 13.805L122.214 11.4024L120.133 13.5784ZM130.564 7.07303H129.415V0.771693H126.033V16.865H129.415V10.3597H130.412L133.794 16.2304L137.111 17.3184L138.065 14.145L136.201 13.533L133.491 8.81836L136.092 4.10369L137.957 3.49169L137.003 0.318359L133.686 1.40636L130.564 7.07303ZM139.477 16.865H150.165V13.5784H142.837V10.1104H149.254V6.82369H142.837V4.05836H150.165V0.771693H139.477V16.865ZM158.408 4.05836H162.635V0.771693H150.82V4.05836H155.047V16.865H158.408V4.05836ZM164.162 16.865H173.224L175.978 13.941V9.65703L173.224 6.73303H167.523V4.05836H175.067V0.771693H164.162V16.865ZM172.617 10.949V12.649L171.728 13.5784H167.523V10.0197H171.728L172.617 10.949ZM180.931 0.771693L177.918 3.62769V14.009L180.931 16.865H187.37L190.384 14.009V3.62769L187.37 0.771693H180.931ZM187.023 5.01036V12.6264L186.026 13.5784H182.275L181.278 12.6264V5.01036L182.275 4.05836H186.026L187.023 5.01036ZM205.262 0.771693H195.029L193.707 12.785L193.056 13.465L191.04 14.1904L192.059 17.3184L195.094 16.2304L196.958 14.2357L198.064 4.05836H201.901V16.865H205.262V0.771693ZM211.523 0.771693L206.559 16.2077L209.724 17.3184L210.786 13.7144H215.664L216.835 17.3184L220 16.2077L215.035 0.771693H211.523ZM214.819 10.6544H211.74L212.954 6.89169L213.236 5.21436H213.323L213.605 6.89169L214.819 10.6544Z" fill="#F5A914"/>
</svg>
