<svg width="183" height="15" viewBox="0 0 183 15" fill="none" xmlns="http://www.w3.org/2000/svg">
<path d="M16.406 14V1.21999H13.616V11.39H9.63796V1.21999H6.84796V11.39H2.85196V1.21999H0.0799561V14H16.406ZM22.3342 6.22399H21.3802V1.21999H18.5722V14H21.3802V8.83398H22.2082L25.0162 13.496L27.7702 14.36L28.5622 11.84L27.0142 11.354L24.7642 7.60999L26.9242 3.86599L28.4722 3.37999L27.6802 0.859985L24.9262 1.72399L22.3342 6.22399ZM31.7047 1.21999L29.2027 3.48799V11.732L31.7047 14H37.0507L39.5527 11.732V3.48799L37.0507 1.21999H31.7047ZM36.7627 4.58599V10.634L35.9347 11.39H32.8207L31.9927 10.634V4.58599L32.8207 3.82999H35.9347L36.7627 4.58599ZM51.9057 1.21999H43.4097L42.3117 10.76L41.7717 11.3L40.0977 11.876L40.9437 14.36L43.4637 13.496L45.0117 11.912L45.9297 3.82999H49.1157V14H51.9057V1.21999ZM57.1044 1.21999L52.9824 13.478L55.6104 14.36L56.4924 11.498H60.5424L61.5144 14.36L64.1424 13.478L60.0204 1.21999H57.1044ZM59.8404 9.06799H57.2844L58.2924 6.07999L58.5264 4.74799H58.5984L58.8324 6.07999L59.8404 9.06799ZM71.1659 14H78.6899L80.9759 11.678V8.27599L78.6899 5.95399H73.9559V3.82999H80.2199V1.21999H71.1659V14ZM78.1859 9.30199V10.652L77.4479 11.39H73.9559V8.56399H77.4479L78.1859 9.30199ZM85.8095 1.21999L81.6875 13.478L84.3155 14.36L85.1975 11.498H89.2475L90.2195 14.36L92.8475 13.478L88.7255 1.21999H85.8095ZM88.5455 9.06799H85.9895L86.9975 6.07999L87.2315 4.74799H87.3035L87.5375 6.07999L88.5455 9.06799ZM99.824 11.39H96.908L96.188 10.67V4.54999L96.908 3.82999H99.698L100.418 4.54999V5.89999H103.208V3.52399L100.904 1.21999H95.702L93.398 3.52399V11.696L95.702 14H101.03L103.46 11.57L101.552 9.66199L99.824 11.39ZM108.485 6.22399H107.531V1.21999H104.723V14H107.531V8.83398H108.359L111.167 13.496L113.921 14.36L114.713 11.84L113.165 11.354L110.915 7.60999L113.075 3.86599L114.623 3.37999L113.831 0.859985L111.077 1.72399L108.485 6.22399ZM115.885 14H124.759V11.39H118.675V8.63598H124.003V6.02599H118.675V3.82999H124.759V1.21999H115.885V14ZM131.603 3.82999H135.113V1.21999H125.303V3.82999H128.813V14H131.603V3.82999ZM136.381 14H143.905L146.191 11.678V8.27599L143.905 5.95399H139.171V3.82999H145.435V1.21999H136.381V14ZM143.401 9.30199V10.652L142.663 11.39H139.171V8.56399H142.663L143.401 9.30199ZM150.304 1.21999L147.802 3.48799V11.732L150.304 14H155.65L158.152 11.732V3.48799L155.65 1.21999H150.304ZM155.362 4.58599V10.634L154.534 11.39H151.42L150.592 10.634V4.58599L151.42 3.82999H154.534L155.362 4.58599ZM170.505 1.21999H162.009L160.911 10.76L160.371 11.3L158.697 11.876L159.543 14.36L162.063 13.496L163.611 11.912L164.529 3.82999H167.715V14H170.505V1.21999ZM175.704 1.21999L171.582 13.478L174.21 14.36L175.092 11.498H179.142L180.114 14.36L182.742 13.478L178.62 1.21999H175.704ZM178.44 9.06799H175.884L176.892 6.07999L177.126 4.74799H177.198L177.432 6.07999L178.44 9.06799Z" fill="#B4B3B2"/>
</svg>
