<svg width="183" height="15" fill="none" xmlns="http://www.w3.org/2000/svg"><path d="M16.406 14V1.22h-2.79v10.17H9.638V1.22h-2.79v10.17H2.852V1.22H.08V14h16.326zm5.928-7.776h-.954V1.22h-2.808V14h2.808V8.834h.828l2.808 4.662 2.754.864.792-2.52-1.548-.486-2.25-3.744 2.16-3.744 1.548-.486L27.68.86l-2.754.864-2.592 4.5zm9.37-5.004l-2.501 2.268v8.244L31.705 14h5.346l2.502-2.268V3.488L37.05 1.22h-5.346zm5.059 3.366v6.048l-.828.756H32.82l-.828-.756V4.586l.828-.756h3.114l.828.756zM51.906 1.22H43.41l-1.098 9.54-.54.54-1.674.576.846 2.484 2.52-.864 1.548-1.584.918-8.082h3.186V14h2.79V1.22zm5.198 0l-4.122 12.258 2.628.882.882-2.862h4.05l.972 2.862 2.628-.882L60.02 1.22h-2.916zm2.736 7.848h-2.556l1.008-2.988.234-1.332h.072l.234 1.332 1.008 2.988zM71.166 14h7.524l2.286-2.322V8.276L78.69 5.954h-4.734V3.83h6.264V1.22h-9.054V14zm7.02-4.698v1.35l-.738.738h-3.492V8.564h3.492l.738.738zm7.623-8.082l-4.121 12.258 2.627.882.883-2.862h4.05l.971 2.862 2.629-.882L88.724 1.22H85.81zm2.737 7.848H85.99l1.008-2.988.233-1.332h.073l.233 1.332 1.008 2.988zm11.278 2.322h-2.916l-.72-.72V4.55l.72-.72h2.79l.72.72V5.9h2.79V3.524l-2.304-2.304h-5.202l-2.304 2.304v8.172L95.702 14h5.328l2.43-2.43-1.908-1.908-1.728 1.728zm8.661-5.166h-.954V1.22h-2.808V14h2.808V8.834h.828l2.808 4.662 2.754.864.792-2.52-1.548-.486-2.25-3.744 2.16-3.744 1.548-.486-.792-2.52-2.754.864-2.592 4.5zm7.4 7.776h8.874v-2.61h-6.084V8.636h5.328v-2.61h-5.328V3.83h6.084V1.22h-8.874V14zm15.718-10.17h3.51V1.22h-9.81v2.61h3.51V14h2.79V3.83zM136.381 14h7.524l2.286-2.322V8.276l-2.286-2.322h-4.734V3.83h6.264V1.22h-9.054V14zm7.02-4.698v1.35l-.738.738h-3.492V8.564h3.492l.738.738zm6.903-8.082l-2.502 2.268v8.244L150.304 14h5.346l2.502-2.268V3.488L155.65 1.22h-5.346zm5.058 3.366v6.048l-.828.756h-3.114l-.828-.756V4.586l.828-.756h3.114l.828.756zm15.143-3.366h-8.496l-1.098 9.54-.54.54-1.674.576.846 2.484 2.52-.864 1.548-1.584.918-8.082h3.186V14h2.79V1.22zm5.199 0l-4.122 12.258 2.628.882.882-2.862h4.05l.972 2.862 2.628-.882L178.62 1.22h-2.916zm2.736 7.848h-2.556l1.008-2.988.234-1.332h.072l.234 1.332 1.008 2.988z" fill="#B4B3B2"/></svg>