<svg width="36" height="36" viewBox="0 0 36 36" fill="none" xmlns="http://www.w3.org/2000/svg">
<path d="M17.9995 6.71973C16.8662 6.71973 15.7584 7.05579 14.8161 7.68541C13.8738 8.31503 13.1394 9.20993 12.7057 10.257C12.272 11.304 12.1585 12.4561 12.3796 13.5676C12.6007 14.6791 13.1465 15.7001 13.9478 16.5014C14.7492 17.3028 15.7702 17.8485 16.8817 18.0696C17.9932 18.2907 19.1453 18.1772 20.1923 17.7436C21.2393 17.3099 22.1342 16.5754 22.7639 15.6331C23.3935 14.6909 23.7295 13.583 23.7295 12.4497C23.7295 10.93 23.1258 9.47259 22.0513 8.39801C20.9767 7.32342 19.5192 6.71973 17.9995 6.71973V6.71973ZM17.9995 16.1797C17.2618 16.1797 16.5407 15.961 15.9273 15.5511C15.3139 15.1413 14.8358 14.5587 14.5535 13.8771C14.2711 13.1956 14.1973 12.4456 14.3412 11.722C14.4851 10.9985 14.8404 10.3339 15.362 9.81222C15.8837 9.29057 16.5483 8.93532 17.2718 8.7914C17.9954 8.64747 18.7454 8.72134 19.4269 9.00366C20.1085 9.28597 20.6911 9.76405 21.1009 10.3774C21.5108 10.9908 21.7295 11.712 21.7295 12.4497C21.7269 13.4373 21.3327 14.3834 20.6335 15.0808C19.9343 15.7781 18.9871 16.1697 17.9995 16.1697V16.1797Z" fill="#F5A914"/>
<path d="M29.7699 13.4903C29.0913 13.4714 28.4185 13.3604 27.7699 13.1603V13.7303C27.7699 17.7903 25.3499 21.4003 23.5799 24.0403L23.2199 24.5703C21.4999 27.1503 19.2199 30.0403 17.9899 31.4703C16.8099 30.0403 14.4799 27.1503 12.7599 24.5703L12.4199 24.0003C10.6499 21.3603 8.21988 17.7503 8.21988 13.6903C8.22594 12.0088 8.66589 10.3574 9.49715 8.89569C10.3284 7.43403 11.5229 6.21165 12.9649 5.34682C14.407 4.48199 16.0478 4.00398 17.7287 3.95904C19.4096 3.91411 21.0737 4.30376 22.5599 5.09031C22.6395 4.40273 22.8145 3.72958 23.0799 3.09031C21.2841 2.223 19.2971 1.82702 17.3061 1.93966C15.315 2.0523 13.3854 2.66985 11.6989 3.73417C10.0124 4.79848 8.6245 6.27453 7.66597 8.02332C6.70745 9.77211 6.20979 11.7361 6.21988 13.7303C6.21988 18.4003 8.83988 22.3103 10.7599 25.1603L11.1099 25.6803C13.0202 28.4489 15.0694 31.119 17.2499 33.6803L18.0099 34.5703L18.7699 33.6803C20.95 31.1188 22.9993 28.4487 24.9099 25.6803L25.2599 25.1503C27.1699 22.3003 29.7899 18.4003 29.7899 13.7303C29.7799 13.6503 29.7699 13.5703 29.7699 13.4903V13.4903Z" fill="#F5A914"/>
<path d="M30 11C32.7614 11 35 8.76142 35 6C35 3.23858 32.7614 1 30 1C27.2386 1 25 3.23858 25 6C25 8.76142 27.2386 11 30 11Z" fill="#F5A914"/>
</svg>
