<svg width="33" height="43" viewBox="0 0 33 43" fill="none" xmlns="http://www.w3.org/2000/svg">
<path d="M17.7291 18.8773C17.6072 18.6582 17.429 18.4757 17.2129 18.3485C16.9968 18.2214 16.7507 18.1544 16.5 18.1544C16.2493 18.1544 16.0031 18.2214 15.787 18.3485C15.5709 18.4757 15.3928 18.6582 15.2709 18.8773L12.9548 23.0436L8.27709 23.9589C8.03106 24.007 7.80237 24.1201 7.61471 24.2863C7.42704 24.4525 7.28723 24.6659 7.20974 24.9043C7.13225 25.1427 7.1199 25.3975 7.17397 25.6423C7.22805 25.8871 7.34658 26.113 7.51729 26.2966L10.7638 29.7867L10.1887 34.5188C10.1585 34.7676 10.1954 35.0201 10.2955 35.2499C10.3957 35.4797 10.5555 35.6786 10.7583 35.8259C10.9611 35.9732 11.1997 36.0637 11.4492 36.0878C11.6988 36.112 11.9502 36.069 12.1775 35.9633L16.5 33.954L20.8225 35.9633C21.0498 36.069 21.3013 36.112 21.5508 36.0878C21.8004 36.0637 22.0389 35.9732 22.2418 35.8259C22.4446 35.6785 22.6044 35.4796 22.7045 35.2498C22.8047 35.0199 22.8415 34.7675 22.8113 34.5186L22.2362 29.7869L25.4823 26.2967C25.6532 26.1132 25.7718 25.8873 25.826 25.6425C25.8801 25.3977 25.8678 25.1429 25.7904 24.9045C25.7129 24.666 25.5731 24.4526 25.3854 24.2864C25.1978 24.1201 24.969 24.0071 24.723 23.959L20.0451 23.0436L17.7291 18.8773ZM21.2063 28.8289C21.0668 28.9788 20.9618 29.1574 20.8986 29.3522C20.8355 29.5469 20.8157 29.7532 20.8407 29.9564L21.4153 34.688L17.0929 32.6786C16.9073 32.5922 16.7051 32.5475 16.5003 32.5475C16.2956 32.5475 16.0934 32.5922 15.9078 32.6786L11.585 34.6877L12.16 29.9563C12.185 29.753 12.1652 29.5467 12.1019 29.3519C12.0387 29.1571 11.9336 28.9784 11.794 28.8285L8.54695 25.3391L13.2247 24.4237C13.4258 24.3846 13.6159 24.302 13.7816 24.1816C13.9473 24.0612 14.0847 23.9059 14.184 23.7268L16.498 19.5573L16.5 19.5606L18.816 23.7268C18.9153 23.9059 19.0527 24.0612 19.2184 24.1816C19.3841 24.302 19.5742 24.3846 19.7753 24.4237L24.4527 25.3391L21.2063 28.8289Z" fill="#F5A914"/>
<path d="M32.5668 0.739602C32.5038 0.637676 32.4157 0.553549 32.3111 0.495207C32.2064 0.436865 32.0885 0.406244 31.9687 0.40625H20.7187C20.5881 0.406235 20.4601 0.442583 20.349 0.511222C20.238 0.57986 20.1482 0.678078 20.0898 0.794867L16.5 7.97448L12.9102 0.794867C12.8517 0.678078 12.762 0.57986 12.6509 0.511222C12.5398 0.442583 12.4118 0.406235 12.2812 0.40625H1.03121C0.911345 0.406236 0.793466 0.436865 0.68877 0.495229C0.584074 0.553592 0.496036 0.637752 0.433018 0.739714C0.37 0.841677 0.334095 0.958057 0.328712 1.0778C0.32333 1.19755 0.348649 1.31668 0.402265 1.42388L7.56387 15.7471C7.40366 16.0012 7.2735 16.273 7.17603 16.5572C7.05379 16.93 6.84546 17.2687 6.56792 17.546C6.29038 17.8233 5.95144 18.0314 5.57853 18.1533C4.7933 18.4106 4.10951 18.9095 3.62491 19.5788C3.14031 20.2481 2.87971 21.0535 2.88036 21.8798C2.88271 22.1444 2.91052 22.4081 2.9634 22.6673C2.99686 22.8387 3.01377 23.013 3.01388 23.1876C3.01546 23.8052 2.78919 24.4016 2.3784 24.8627C1.73729 25.5823 1.38296 26.5123 1.38278 27.4761C1.3826 28.4398 1.73658 29.37 2.37741 30.0898C2.78873 30.551 3.01541 31.1477 3.01402 31.7656C3.01393 31.9403 2.99703 32.1145 2.96354 32.2859C2.91073 32.5452 2.88292 32.8089 2.8805 33.0734C2.87997 33.9 3.14083 34.7056 3.62577 35.375C4.11071 36.0445 4.7949 36.5434 5.5805 36.8005C5.95333 36.9227 6.29212 37.131 6.56942 37.4085C6.84673 37.6861 7.05474 38.0251 7.17659 38.398C7.4339 39.1832 7.93287 39.867 8.60217 40.3516C9.27147 40.8362 10.0768 41.0968 10.9032 41.0962C11.1677 41.0938 11.4314 41.066 11.6907 41.0131C12.0769 40.9349 12.4761 40.9469 12.8569 41.0484C13.2378 41.1499 13.59 41.338 13.8862 41.5981C14.6057 42.2392 15.5358 42.5936 16.4995 42.5937C17.4633 42.5939 18.3935 42.2399 19.1133 41.5991C19.4096 41.3391 19.7619 41.1509 20.1428 41.0493C20.5237 40.9476 20.9229 40.9353 21.3093 41.0131C21.5686 41.066 21.8323 41.0938 22.0968 41.0962C22.9234 41.0967 23.729 40.8358 24.3984 40.3509C25.0679 39.866 25.5668 39.1818 25.8239 38.3962C25.9461 38.0233 26.1544 37.6845 26.4319 37.4072C26.7095 37.1299 27.0485 36.9219 27.4214 36.8001C28.2066 36.5428 28.8904 36.0438 29.375 35.3745C29.8596 34.7052 30.1202 33.8998 30.1196 33.0735C30.1171 32.809 30.0893 32.5452 30.0365 32.286C30.003 32.1146 29.9861 31.9404 29.986 31.7657C29.9846 31.1482 30.2109 30.5518 30.6215 30.0906C31.2626 29.3711 31.617 28.441 31.6171 27.4773C31.6173 26.5135 31.2633 25.5833 30.6225 24.8635C30.2111 24.4023 29.9845 23.8055 29.9859 23.1875C29.986 23.0128 30.0029 22.8386 30.0364 22.6672C30.0892 22.408 30.117 22.1442 30.1194 21.8797C30.1199 21.0531 29.8591 20.2475 29.3742 19.5781C28.8892 18.9087 28.205 18.4097 27.4194 18.1526C27.0468 18.0305 26.7082 17.8224 26.4311 17.5451C26.1539 17.2678 25.9459 16.9292 25.824 16.5565C25.7264 16.2727 25.5962 16.0011 25.4361 15.7472L32.5977 1.42388C32.6512 1.31663 32.6765 1.19748 32.6711 1.07774C32.6656 0.957986 32.6298 0.841599 32.5668 0.739602ZM2.16901 1.8125H11.8465L15.7137 9.54688L13.7678 13.4388C13.6938 13.4963 13.6165 13.5494 13.5363 13.5978C13.4717 13.6381 13.4106 13.6839 13.3424 13.7179C13.2406 13.7652 13.1357 13.8056 13.0284 13.8388C12.9586 13.8625 12.8919 13.8936 12.82 13.9112C12.7025 13.9364 12.5835 13.9533 12.4637 13.962C12.3959 13.969 12.3301 13.9852 12.2615 13.9868C12.0701 13.992 11.8787 13.9763 11.6907 13.94C11.4315 13.8872 11.1678 13.8594 10.9032 13.857C10.7167 13.8586 10.5306 13.8739 10.3463 13.9026C10.2955 13.91 10.2456 13.9196 10.1952 13.929C10.0479 13.9566 9.90238 13.9926 9.75924 14.0368C9.72169 14.0484 9.68359 14.0574 9.64632 14.0701C9.47363 14.1293 9.30522 14.2003 9.14225 14.2826C9.10168 14.303 9.06329 14.3269 9.02335 14.3488C8.89792 14.4175 8.77627 14.4929 8.65892 14.5746C8.6322 14.5933 8.60232 14.6067 8.57609 14.626L2.16901 1.8125ZM26.9812 19.4891C27.4851 19.6541 27.9239 19.9741 28.235 20.4035C28.546 20.8328 28.7135 21.3495 28.7133 21.8797C28.7107 22.0546 28.6914 22.2288 28.6557 22.4C28.6053 22.6595 28.5798 22.9232 28.5796 23.1875C28.5781 24.1518 28.9325 25.0828 29.5749 25.8019C29.9846 26.2636 30.2108 26.8594 30.2108 27.4766C30.2108 28.0938 29.9846 28.6897 29.5749 29.1513L29.5739 29.1524C28.9321 29.8714 28.5781 30.8019 28.5796 31.7656C28.5798 32.0299 28.6052 32.2936 28.6555 32.5531C28.6912 32.7243 28.7105 32.8986 28.7132 33.0734C28.7135 33.6033 28.5464 34.1197 28.2358 34.5489C27.9252 34.9782 27.4869 35.2983 26.9835 35.4636C26.4009 35.6543 25.8714 35.9795 25.4377 36.4128C25.0041 36.8461 24.6786 37.3754 24.4875 37.9578C24.3224 38.4617 24.0024 38.9005 23.573 39.2116C23.1437 39.5226 22.627 39.6901 22.0968 39.6899C21.922 39.6873 21.7477 39.668 21.5765 39.6323C20.9769 39.5136 20.3581 39.5349 19.7681 39.6943C19.178 39.8538 18.6327 40.1472 18.1745 40.5517C17.7067 40.949 17.1129 41.167 16.4991 41.1668C15.8853 41.1666 15.2916 40.9482 14.8241 40.5506C14.1051 39.9088 13.1747 39.5547 12.2109 39.5563C11.9464 39.5564 11.6826 39.5818 11.423 39.6321C11.2519 39.6679 11.0779 39.6872 10.9032 39.6898C10.3733 39.6901 9.8569 39.523 9.42766 39.2124C8.99841 38.9018 8.67828 38.4635 8.51295 37.9601C8.32226 37.3775 7.9971 36.8479 7.56378 36.4143C7.13046 35.9807 6.60116 35.6552 6.01869 35.4641C5.51483 35.299 5.07603 34.979 4.76496 34.5496C4.45389 34.1203 4.28646 33.6036 4.28661 33.0734C4.28927 32.8986 4.30858 32.7243 4.34426 32.5531C4.39466 32.2936 4.42011 32.0299 4.42027 31.7656C4.42181 30.8013 4.06741 29.8704 3.425 29.1512C3.0152 28.6893 2.78898 28.0932 2.78917 27.4758C2.78937 26.8583 3.01596 26.2623 3.42605 25.8007C4.06784 25.0817 4.42185 24.1513 4.42027 23.1875C4.42013 22.923 4.39473 22.6592 4.34441 22.3996C4.30865 22.2285 4.28935 22.0545 4.28675 21.8798C4.28642 21.3499 4.45349 20.8335 4.76412 20.4043C5.07475 19.975 5.51304 19.6549 6.01644 19.4896C6.59918 19.2986 7.12879 18.9731 7.56242 18.5394C7.99605 18.1058 8.32153 17.5762 8.51253 16.9935C8.67827 16.4902 8.99854 16.0521 9.42776 15.7414C9.85697 15.4308 10.3732 15.2635 10.9031 15.2633C11.078 15.2659 11.2522 15.2852 11.4234 15.3209C11.7229 15.3791 12.028 15.4031 12.3329 15.3927C12.3438 15.3923 12.3544 15.3902 12.3653 15.3898C12.5047 15.3845 12.6437 15.3719 12.7818 15.3522C12.7993 15.3496 12.8162 15.3444 12.8337 15.3416C12.9637 15.3205 13.0929 15.296 13.2197 15.2626C13.2553 15.2533 13.2893 15.2391 13.3246 15.2288C13.4319 15.1973 13.5391 15.1655 13.643 15.1253C13.691 15.1067 13.7364 15.0821 13.7836 15.0616C13.872 15.0232 13.9613 14.9865 14.0466 14.9416C14.1042 14.9113 14.1579 14.8743 14.2139 14.8411C14.2851 14.7989 14.358 14.7596 14.4265 14.7126C14.4928 14.6672 14.5541 14.6145 14.6176 14.5649C14.6693 14.5244 14.7238 14.4876 14.7734 14.4443L14.7799 14.4391C14.7954 14.4275 14.8105 14.4148 14.8253 14.4017C15.2341 14.0559 15.7397 13.8445 16.273 13.7963C16.8064 13.7482 17.3416 13.8656 17.8058 14.1327C17.9374 14.2098 18.061 14.2999 18.1747 14.4017C18.6316 14.8085 19.1768 15.1033 19.7674 15.2629C20.3579 15.4224 20.9774 15.4424 21.577 15.3211C21.7481 15.2854 21.9221 15.2661 22.0968 15.2635C22.6265 15.2639 23.1426 15.4313 23.5717 15.7418C24.0008 16.0523 24.3211 16.4902 24.487 16.9932C24.6778 17.5757 25.0029 18.1052 25.4362 18.5388C25.8695 18.9724 26.3988 19.2979 26.9812 19.4891ZM24.4242 14.626C24.3999 14.6081 24.372 14.5956 24.3473 14.5783C24.2263 14.4936 24.1006 14.4158 23.9709 14.3451C23.9338 14.3248 23.898 14.3026 23.8602 14.2835C23.6963 14.2006 23.5268 14.1291 23.353 14.0696C23.3168 14.0572 23.2797 14.0485 23.2432 14.0374C23.0992 13.9929 22.9528 13.9567 22.8046 13.929C22.7543 13.9195 22.7046 13.91 22.6539 13.9026C22.4696 13.8739 22.2834 13.8587 22.0968 13.857C21.8299 13.8595 21.5638 13.8878 21.3023 13.9414C20.9171 14.0205 20.5187 14.0087 20.1388 13.9069C19.7589 13.8051 19.408 13.6161 19.114 13.355C18.9594 13.2191 18.7939 13.0962 18.6192 12.9874C18.569 12.9551 18.5194 12.9232 18.4679 12.8933C18.3091 12.8013 18.1441 12.7205 17.974 12.6515C17.9009 12.6219 17.8263 12.5992 17.7512 12.5741C17.6257 12.5319 17.4984 12.4963 17.3695 12.4673C17.2998 12.4515 17.2321 12.4316 17.1613 12.4196C16.973 12.3887 16.7826 12.3714 16.5918 12.3677C16.5609 12.367 16.5311 12.3594 16.5 12.3594C16.4727 12.3594 16.4466 12.3661 16.4195 12.3664C16.23 12.3676 16.0408 12.3829 15.8535 12.412L17.1289 9.86117L21.1534 1.8125H30.8309L24.4242 14.626Z" fill="#F5A914"/>
</svg>
