<svg width="33" height="43" fill="none" xmlns="http://www.w3.org/2000/svg"><path d="M17.73 18.877a1.408 1.408 0 00-2.46 0l-2.315 4.167-4.678.915a1.406 1.406 0 00-.76 2.338l3.247 3.49-.575 4.732a1.407 1.407 0 001.989 1.444l4.322-2.009 4.323 2.01a1.406 1.406 0 001.988-1.445l-.575-4.732 3.246-3.49a1.406 1.406 0 00-.759-2.338l-4.678-.915-2.316-4.167zm3.476 9.952a1.404 1.404 0 00-.365 1.127l.574 4.732-4.322-2.01a1.404 1.404 0 00-1.185 0l-4.323 2.01.575-4.732a1.402 1.402 0 00-.366-1.128L8.547 25.34l4.678-.915a1.403 1.403 0 00.959-.697l2.314-4.17.002.004 2.316 4.166a1.404 1.404 0 00.96.697l4.677.915-3.247 3.49z" fill="#F5A914"/><path d="M32.567.74a.703.703 0 00-.598-.334h-11.25a.703.703 0 00-.63.389L16.5 7.975 12.91.794a.704.704 0 00-.629-.389H1.031a.703.703 0 00-.629 1.018l7.162 14.323c-.16.254-.29.526-.388.81a2.498 2.498 0 01-1.597 1.596A3.918 3.918 0 002.88 21.88c.003.264.03.528.083.787.034.172.05.346.05.52a2.508 2.508 0 01-.635 1.676 3.93 3.93 0 000 5.227 2.51 2.51 0 01.636 1.676c0 .174-.017.349-.05.52-.053.26-.081.523-.083.787a3.919 3.919 0 002.7 3.727 2.498 2.498 0 011.596 1.598 3.918 3.918 0 003.726 2.698c.265-.002.528-.03.788-.083a2.558 2.558 0 012.195.585 3.929 3.929 0 005.227.001 2.562 2.562 0 012.196-.586c.26.053.523.08.788.083a3.92 3.92 0 003.727-2.7A2.498 2.498 0 0127.42 36.8a3.918 3.918 0 002.699-3.726 4.142 4.142 0 00-.084-.788 2.72 2.72 0 01-.05-.52 2.51 2.51 0 01.636-1.675 3.929 3.929 0 000-5.228 2.51 2.51 0 01-.636-1.675c0-.175.017-.35.05-.52.053-.26.081-.524.083-.788a3.92 3.92 0 00-2.7-3.727 2.496 2.496 0 01-1.595-1.596 3.888 3.888 0 00-.388-.81l7.162-14.323a.704.704 0 00-.031-.684zM2.169 1.812h9.678l3.867 7.735-1.946 3.892a2.39 2.39 0 01-.232.159c-.064.04-.125.086-.194.12a2.496 2.496 0 01-.314.12c-.07.025-.136.056-.208.073a2.595 2.595 0 01-.356.051c-.068.007-.134.023-.203.025a2.634 2.634 0 01-.57-.047 4.133 4.133 0 00-.788-.083 3.833 3.833 0 00-.557.046c-.05.007-.1.017-.15.026a3.932 3.932 0 00-.437.108c-.037.011-.075.02-.113.033-.172.06-.34.13-.504.213-.04.02-.079.044-.119.066a4.005 4.005 0 00-.364.226c-.027.018-.057.032-.083.051L2.17 1.813zM26.981 19.49a2.514 2.514 0 011.732 2.39c-.002.176-.022.35-.057.521-.05.26-.076.523-.076.788a3.915 3.915 0 00.995 2.614 2.523 2.523 0 010 3.35h-.001a3.915 3.915 0 00-.994 2.614c0 .264.025.528.076.787.035.171.055.346.057.52a2.514 2.514 0 01-1.73 2.39 3.907 3.907 0 00-2.495 2.495 2.515 2.515 0 01-2.391 1.732 2.75 2.75 0 01-.52-.058 3.974 3.974 0 00-3.403.92 2.587 2.587 0 01-3.35-.001 3.914 3.914 0 00-2.613-.995 4.15 4.15 0 00-.788.076 2.736 2.736 0 01-.52.058 2.515 2.515 0 01-2.39-1.73 3.906 3.906 0 00-2.494-2.496 2.515 2.515 0 01-1.732-2.39c.002-.175.022-.35.057-.52.05-.26.076-.524.076-.788a3.915 3.915 0 00-.995-2.615 2.523 2.523 0 01.001-3.35c.642-.72.996-1.65.994-2.613 0-.265-.025-.529-.076-.788a2.74 2.74 0 01-.057-.52 2.514 2.514 0 011.73-2.39 3.907 3.907 0 002.496-2.496 2.518 2.518 0 012.39-1.73c.175.002.35.021.52.057.3.058.605.082.91.072.01 0 .021-.003.032-.003a4.14 4.14 0 00.417-.038c.017-.002.034-.008.052-.01.13-.022.259-.046.386-.08.035-.009.07-.023.105-.033.107-.032.214-.063.318-.104.048-.018.093-.043.14-.063.089-.039.178-.075.264-.12.057-.03.11-.068.167-.1.071-.043.144-.082.213-.13.066-.045.127-.098.19-.147.052-.04.107-.077.156-.12l.007-.006a2.605 2.605 0 013.026-.306c.131.077.255.167.369.269a3.941 3.941 0 003.402.92c.171-.037.345-.056.52-.058a2.52 2.52 0 012.39 1.73 3.907 3.907 0 002.494 2.495zm-2.557-4.863c-.024-.018-.052-.03-.077-.048a3.968 3.968 0 00-.376-.233l-.11-.062a3.98 3.98 0 00-.508-.213c-.036-.013-.073-.021-.11-.033a3.932 3.932 0 00-.438-.108 3.848 3.848 0 00-.708-.072 4.15 4.15 0 00-.795.084 2.53 2.53 0 01-2.188-.586 3.76 3.76 0 00-.495-.368 3.938 3.938 0 00-.645-.336c-.073-.03-.148-.052-.223-.077a3.845 3.845 0 00-.382-.107c-.07-.016-.137-.035-.208-.047a3.996 3.996 0 00-.57-.052c-.03-.001-.06-.009-.091-.009-.027 0-.053.007-.08.007-.19.002-.38.017-.567.046l1.276-2.55 4.024-8.05h9.678l-6.407 12.814z" fill="#F5A914"/></svg>