<svg width="25" height="54" viewBox="0 0 25 54" fill="none" xmlns="http://www.w3.org/2000/svg">
<path d="M14.5174 3.97434C14.6446 3.97423 14.7689 3.93689 14.8743 3.86709C14.9797 3.7973 15.0614 3.69825 15.1088 3.58268C15.1562 3.46711 15.1673 3.3403 15.1405 3.21854C15.1137 3.09678 15.0503 2.98565 14.9585 2.89942C14.8667 2.8132 14.7506 2.75582 14.6252 2.73466C14.4998 2.7135 14.3708 2.72954 14.2548 2.7807C14.1388 2.83186 14.041 2.91581 13.9741 3.02177C13.9073 3.12772 13.8743 3.25083 13.8794 3.37527C13.8861 3.53644 13.9563 3.68883 14.0752 3.8005C14.1941 3.91217 14.3526 3.97447 14.5174 3.97434V3.97434Z" fill="#FABC1F"/>
<path d="M9.39672 3.97434C9.56591 3.97434 9.72817 3.90855 9.84781 3.79146C9.96744 3.67437 10.0346 3.51556 10.0346 3.34996C10.0346 3.18437 9.96744 3.02555 9.84781 2.90846C9.72817 2.79137 9.56591 2.72559 9.39672 2.72559C9.22753 2.72559 9.06527 2.79137 8.94564 2.90846C8.826 3.02555 8.75879 3.18437 8.75879 3.34996C8.75879 3.51556 8.826 3.67437 8.94564 3.79146C9.06527 3.90855 9.22753 3.97434 9.39672 3.97434V3.97434Z" fill="#FABC1F"/>
<path d="M12.0691 4.21875C12.5452 4.21875 12.9312 3.84099 12.9312 3.375C12.9312 2.90901 12.5452 2.53125 12.0691 2.53125C11.593 2.53125 11.207 2.90901 11.207 3.375C11.207 3.84099 11.593 4.21875 12.0691 4.21875Z" fill="#FABC1F"/>
<path d="M15.5172 54C20.3017 54 25 50.2369 25 46.4062V39.7491C25.003 39.1766 24.814 38.619 24.4621 38.1618C24.1102 37.7045 23.6147 37.3729 23.0517 37.2178V3.375C23.0517 2.47989 22.6884 1.62145 22.0417 0.988515C21.395 0.355579 20.518 0 19.6034 0L4.31034 0C3.3958 0 2.51872 0.355579 1.87204 0.988515C1.22537 1.62145 0.862068 2.47989 0.862068 3.375V5.63625C0.633433 5.63625 0.414162 5.72514 0.252493 5.88338C0.0908241 6.04161 0 6.25622 0 6.48V9.01125C0 9.23503 0.0908241 9.44964 0.252493 9.60787C0.414162 9.76611 0.633433 9.855 0.862068 9.855V10.6988C0.633433 10.6988 0.414162 10.7876 0.252493 10.9459C0.0908241 11.1041 0 11.3187 0 11.5425V14.0738C0 14.2975 0.0908241 14.5121 0.252493 14.6704C0.414162 14.8286 0.633433 14.9175 0.862068 14.9175V37.125C0.862068 38.0201 1.22537 38.8785 1.87204 39.5115C2.51872 40.1444 3.3958 40.5 4.31034 40.5H6.03447V46.4062C6.03447 50.2369 10.7327 54 15.5172 54ZM23.2758 39.7491V46.4062C23.2758 49.3341 19.362 52.3125 15.5172 52.3125C11.6724 52.3125 7.75861 49.3341 7.75861 46.4062V35.5809C8.26305 35.7555 8.69977 36.0789 9.00856 36.5065C9.31735 36.9342 9.48303 37.4451 9.48274 37.9688V44.7188C9.48274 44.9425 9.57357 45.1571 9.73524 45.3154C9.89691 45.4736 10.1162 45.5625 10.3448 45.5625C10.5734 45.5625 10.7927 45.4736 10.9544 45.3154C11.1161 45.1571 11.2069 44.9425 11.2069 44.7188V24.4688C11.2069 24.3469 11.2338 24.2265 11.2859 24.1158C11.338 24.0051 11.414 23.9067 11.5086 23.8275C11.6046 23.7462 11.7177 23.6867 11.8399 23.6531C11.9621 23.6196 12.0903 23.6129 12.2155 23.6334C12.4257 23.6838 12.6118 23.8037 12.7421 23.9728C12.8725 24.1419 12.9392 24.3499 12.931 24.5616V34.9903C12.9288 35.2096 12.9954 35.4243 13.1219 35.6053C13.2483 35.7864 13.4284 35.9251 13.6379 36.0028C13.8501 36.0842 14.0826 36.1003 14.3044 36.0491C14.5262 35.9978 14.7267 35.8816 14.8793 35.7159C14.9762 35.6098 15.0989 35.5294 15.2361 35.4822C15.3732 35.435 15.5204 35.4225 15.6638 35.4459C15.874 35.4963 16.06 35.6162 16.1904 35.7853C16.3208 35.9544 16.3875 36.1624 16.3793 36.3741V37.9688C16.3793 38.1925 16.4701 38.4071 16.6318 38.5654C16.7934 38.7236 17.0127 38.8125 17.2414 38.8125C17.47 38.8125 17.6893 38.7236 17.8509 38.5654C18.0126 38.4071 18.1034 38.1925 18.1034 37.9688C18.1016 37.8448 18.1277 37.7219 18.1798 37.6089C18.232 37.496 18.309 37.3956 18.4053 37.3151C18.5016 37.2345 18.6148 37.1757 18.737 37.1429C18.8592 37.11 18.9872 37.1039 19.112 37.125C19.3223 37.1754 19.5083 37.2952 19.6387 37.4644C19.769 37.6335 19.8358 37.8414 19.8276 38.0531V39.6562C19.8276 39.88 19.9184 40.0946 20.0801 40.2529C20.2417 40.4111 20.461 40.5 20.6896 40.5C20.9183 40.5 21.1375 40.4111 21.2992 40.2529C21.4609 40.0946 21.5517 39.88 21.5517 39.6562C21.5566 39.5781 21.574 39.5012 21.6034 39.4284C21.6216 39.3571 21.6507 39.2888 21.6896 39.2259C21.7259 39.1676 21.7694 39.1137 21.8189 39.0656L21.931 38.9728L22.0862 38.8884L22.2155 38.8378C22.3294 38.8166 22.4464 38.8166 22.5603 38.8378C22.7676 38.8876 22.9514 39.005 23.0814 39.1706C23.2115 39.3362 23.28 39.5402 23.2758 39.7491ZM4.31034 1.6875H19.6551C20.0286 1.69272 20.3902 1.81647 20.6856 2.04015C20.9809 2.26383 21.1941 2.57534 21.2931 2.92781H19.6551C19.2242 2.9301 18.7992 3.02676 18.4113 3.21072C18.0235 3.39468 17.6826 3.66127 17.4138 3.99094C17.2277 4.24369 16.9848 4.45122 16.7038 4.59751C16.4228 4.7438 16.1112 4.82495 15.7931 4.83469H8.12068C7.80376 4.82494 7.49341 4.74373 7.2138 4.59739C6.93419 4.45104 6.69286 4.2435 6.50861 3.99094C6.24393 3.66717 5.9099 3.40417 5.53008 3.22048C5.15026 3.03679 4.73389 2.93689 4.31034 2.92781H2.67241C2.77134 2.57534 2.98453 2.26383 3.27992 2.04015C3.5753 1.81647 3.93691 1.69272 4.31034 1.6875ZM4.31034 38.8125C3.85307 38.8125 3.41453 38.6347 3.09119 38.3182C2.76785 38.0018 2.5862 37.5726 2.5862 37.125V3.77156H4.31034C4.62713 3.78195 4.93724 3.86343 5.21675 4.00972C5.49626 4.15602 5.73769 4.36321 5.92241 4.61531C6.18986 4.94234 6.52803 5.20729 6.91261 5.39111C7.29718 5.57493 7.71859 5.67306 8.14654 5.67844H15.8189C16.2453 5.6653 16.6634 5.56017 17.0434 5.37056C17.4234 5.18095 17.7559 4.91153 18.0172 4.58156C18.2019 4.32946 18.4434 4.12227 18.7229 3.97597C19.0024 3.82968 19.3125 3.7482 19.6293 3.73781H21.3534V36.9984C21.2775 36.8228 21.1821 36.6558 21.0689 36.5006L21.0086 36.4247C20.8957 36.2833 20.7686 36.1532 20.6293 36.0366L20.5517 35.9691C20.4012 35.8576 20.2394 35.7615 20.0689 35.6822H20C19.8176 35.6047 19.6267 35.5481 19.431 35.5134C18.9573 35.4353 18.4707 35.4879 18.0258 35.6653C17.9097 35.1818 17.6509 34.7423 17.2814 34.4018C16.912 34.0612 16.4484 33.8345 15.9483 33.75C15.5145 33.6841 15.0709 33.7217 14.6552 33.8597V24.5616C14.6708 23.9454 14.4629 23.3438 14.0683 22.8634C13.6738 22.383 13.1182 22.055 12.5 21.9375C12.1261 21.8756 11.7429 21.8949 11.3775 21.9941C11.0121 22.0933 10.6735 22.2699 10.3856 22.5114C10.0977 22.753 9.86761 23.0535 9.71159 23.3917C9.55556 23.73 9.47743 24.0977 9.48274 24.4688V34.5938C8.73664 34.0461 7.82917 33.75 6.89654 33.75C6.66791 33.75 6.44864 33.8389 6.28697 33.9971C6.1253 34.1554 6.03447 34.37 6.03447 34.5938V38.8125H4.31034Z" fill="#FABC1F"/>
<path d="M16.3789 24.8906C16.4932 24.8906 16.6028 24.8462 16.6836 24.7671C16.7645 24.6879 16.8099 24.5806 16.8099 24.4688C16.8099 23.238 16.3104 22.0576 15.4212 21.1873C14.532 20.317 13.326 19.8281 12.0685 19.8281C10.811 19.8281 9.60504 20.317 8.71586 21.1873C7.82668 22.0576 7.32715 23.238 7.32715 24.4688C7.32715 24.5806 7.37256 24.6879 7.45339 24.7671C7.53423 24.8462 7.64386 24.8906 7.75818 24.8906C7.8725 24.8906 7.98214 24.8462 8.06297 24.7671C8.1438 24.6879 8.18922 24.5806 8.18922 24.4688C8.18922 23.4618 8.59793 22.496 9.32544 21.784C10.0529 21.0719 11.0397 20.6719 12.0685 20.6719C13.0974 20.6719 14.0841 21.0719 14.8116 21.784C15.5391 22.496 15.9478 23.4618 15.9478 24.4688C15.9478 24.5806 15.9932 24.6879 16.0741 24.7671C16.1549 24.8462 16.2645 24.8906 16.3789 24.8906Z" fill="#FABC1F"/>
<path d="M7.49121 30.0709C7.58053 30.1399 7.6941 30.1715 7.80714 30.1589C7.92019 30.1462 8.02354 30.0904 8.09465 30.0034C8.16563 29.9146 8.19816 29.8021 8.18527 29.6901C8.17237 29.5781 8.11507 29.4755 8.02569 29.4044C6.98055 28.5847 6.2213 27.4675 5.85281 26.2073C5.48432 24.947 5.52479 23.6058 5.96863 22.3691C6.41246 21.1323 7.23776 20.061 8.3305 19.303C9.42324 18.5451 10.7295 18.138 12.0688 18.138C13.4081 18.138 14.7143 18.5451 15.8071 19.303C16.8998 20.061 17.7251 21.1323 18.1689 22.3691C18.6128 23.6058 18.6533 24.947 18.2848 26.2073C17.9163 27.4675 17.157 28.5847 16.1119 29.4044C16.0216 29.4737 15.9631 29.5754 15.9494 29.6869C15.9356 29.7985 15.9677 29.9108 16.0386 29.9992C16.1095 30.0876 16.2133 30.1448 16.3273 30.1583C16.4413 30.1717 16.5561 30.1403 16.6464 30.0709C17.832 29.1425 18.6937 27.8766 19.1123 26.4481C19.531 25.0196 19.4859 23.4991 18.9833 22.0967C18.4807 20.6944 17.5454 19.4795 16.3067 18.62C15.068 17.7605 13.5872 17.2988 12.0688 17.2988C10.5504 17.2988 9.06953 17.7605 7.83085 18.62C6.59218 19.4795 5.6569 20.6944 5.1543 22.0967C4.65169 23.4991 4.60659 25.0196 5.02523 26.4481C5.44387 27.8766 6.30557 29.1425 7.49121 30.0709Z" fill="#FABC1F"/>
</svg>
