<svg width="47" height="47" viewBox="0 0 47 47" fill="none" xmlns="http://www.w3.org/2000/svg">
<path d="M21.6916 6.02188C21.8018 6.02188 21.9395 6.07695 22.0588 6.24219C21.5264 5.48027 22.6555 5.81074 22.7197 5.08555C23.3623 4.6082 23.1328 4.29609 23.3164 4.27773L23.5184 4.1125C23.1236 4.25938 22.9859 4.28691 22.8758 4.28691H22.6922C22.5545 4.28691 22.325 4.31445 21.7834 4.47969C20.5441 4.57148 19.6537 5.91172 19.2314 5.94844C18.8 6.17793 18.8184 6.22383 18.9193 6.22383C18.9469 6.22383 18.9836 6.21465 19.0203 6.21465C19.057 6.21465 19.0846 6.20547 19.1121 6.20547C19.2131 6.20547 19.1855 6.25137 18.598 6.52676C18.7357 6.56348 17.5699 7.07754 17.5607 7.88535C17.524 8.19746 17.6525 8.40859 17.8637 8.40859C18.0473 8.40859 18.2768 8.2709 18.5246 7.92207C19.3508 6.96738 21.0949 6.87559 21.8477 6.29727C21.3795 6.26055 21.4713 6.02188 21.6916 6.02188ZM17.4965 6.34316C17.4139 6.34316 17.524 6.24219 17.6434 6.14121C17.7719 6.04023 17.9188 5.93926 17.9188 5.93926L17.9096 5.94844C18.4053 5.75566 18.1023 5.70977 18.3686 5.58125H18.3502C18.2951 5.58125 18.3961 5.50781 18.4879 5.4252C18.5797 5.35176 18.6623 5.26914 18.5797 5.26914C18.5338 5.26914 18.4145 5.29668 18.2125 5.3793C18.2768 5.2875 18.5246 5.22324 18.8734 5.03047C18.3686 5.1957 17.9738 5.29668 17.9279 5.29668C17.8912 5.29668 18.1023 5.22324 18.7357 5.03047C18.7633 5.03047 18.7908 5.03965 18.8092 5.03965C18.8734 5.03965 18.901 5.02129 18.8918 5.00293C18.8826 4.98457 18.8459 4.97539 18.7816 4.97539C17.8729 5.04883 17.1936 5.61797 17.3955 5.69141C17.5148 5.65469 17.5975 5.63633 17.6525 5.63633C17.7719 5.63633 17.7168 5.73731 17.4781 5.88418C17.5883 6.14121 15.6422 6.80215 15.4219 7.04082C15.532 6.97656 15.6055 6.9582 15.6422 6.9582C15.7891 6.9582 15.5963 7.24277 15.4035 7.38047C15.5229 7.49063 15.6146 7.52734 15.6881 7.52734C15.8809 7.52734 15.9635 7.26113 16.1287 7.17852C16.1654 7.25195 16.2021 7.28867 16.248 7.28867C16.4041 7.28867 16.5969 6.90313 16.7529 6.70117C16.7988 6.74707 16.8539 6.78379 16.9273 6.78379C17.0742 6.78379 17.2945 6.66445 17.6434 6.3248C17.5699 6.33398 17.5148 6.34316 17.4965 6.34316ZM15.3852 8.03223C15.0547 8.23418 14.8803 8.3168 14.8068 8.3168C14.6691 8.3168 14.8527 8.05977 15.018 7.79355C15.1832 7.53652 15.3301 7.27949 15.1189 7.27949C15.018 7.27949 14.8344 7.33457 14.5406 7.48145C13.742 8.01387 12.3926 9.48262 11.7959 9.48262H11.7408C12.7047 8.77578 12.4201 7.38965 13.7695 7.03164C15.1006 6.26973 16.0094 6.5084 17.1936 5.63633C16.8447 5.81074 16.3307 6.00352 16.2113 6.00352C16.1379 6.00352 16.248 5.91172 16.7254 5.68223C16.6795 5.69141 16.6428 5.70059 16.6152 5.70059C16.2939 5.70059 18.7266 4.82852 18.8459 4.81016C17.8453 4.94785 16.2297 5.7832 16.0094 5.7832C15.9818 5.7832 15.9818 5.77402 15.9818 5.75566C16.0186 5.72813 16.0186 5.70977 15.9818 5.70977C15.8625 5.70977 15.3668 5.875 14.8619 6.04024C14.3662 6.20547 13.8613 6.37988 13.7512 6.37988C13.7145 6.37988 13.7145 6.36152 13.7695 6.3248C9.43672 8.78496 5.81992 12.9342 4.69082 17.8545C5.15898 18.9285 4.8377 20.9756 5.60879 21.5723C6.49004 22.3158 4.85606 24.473 5.2875 25.8041C5.72813 28.2092 7.62832 29.8523 7.83027 32.3125C8.1791 34.0016 9.45508 36.067 9.9875 37.141C10.3914 37.5449 11.5021 38.7107 11.6949 38.7107C11.7684 38.7107 11.7225 38.5363 11.4287 38.0682C11.2451 37.5449 10.1803 36.1772 10.6943 36.1772C10.7219 36.1772 10.7494 36.1772 10.7861 36.1863C10.1527 35.5438 12.1906 35.7182 10.7678 34.8461C10.6025 34.6441 10.5658 34.5799 10.6025 34.5799C10.6484 34.5799 10.777 34.6533 10.9238 34.7268C11.0799 34.8002 11.2635 34.8736 11.4104 34.8736C11.6398 34.8736 11.7959 34.7176 11.7041 34.1484C11.7408 34.1668 11.7775 34.1668 11.8051 34.1668C12.0438 34.1668 11.9611 33.6986 11.9795 33.2305C11.9979 32.7623 12.1172 32.2941 12.7598 32.2941C12.8332 32.2941 12.9158 32.3033 12.9984 32.3125C14.4855 31.5047 13.1912 29.274 14.8986 28.457C14.8344 26.6027 12.3467 26.5109 11.4104 25.7582C11.2543 25.85 11.1074 25.8775 10.9605 25.8775C10.7953 25.8775 10.6484 25.8408 10.5199 25.7949C10.3914 25.7582 10.2721 25.7123 10.1895 25.7123C10.1711 25.7123 10.1527 25.7123 10.1344 25.7215C11.7316 25.2992 10.5658 23.0777 9.24395 23.0777H9.15215C9.05117 22.1139 8.55547 22.4811 8.50039 21.6824C8.41777 21.7283 8.33516 21.7467 8.25254 21.7467C8.03223 21.7467 7.83027 21.5906 7.65586 21.4438C7.48145 21.2877 7.33457 21.1408 7.20606 21.1408C7.10508 21.1408 7.01328 21.2418 6.93066 21.5355C7.02246 21.0857 6.99492 20.9389 6.90312 20.9389C6.81133 20.9389 6.64609 21.0949 6.4625 21.251C6.28809 21.407 6.08613 21.5631 5.93008 21.5631H5.88418C4.81016 20.8012 5.89336 19.4518 5.32422 18.4145C5.69141 18.0197 5.83828 17.3496 5.67305 17.3496C5.59043 17.3496 5.4252 17.5148 5.16816 17.9646C4.80098 17.0283 5.77402 14.9078 6.6002 14.7885C6.62773 14.7885 6.64609 14.7793 6.67363 14.7793C6.82051 14.7793 6.96738 14.8527 7.0959 15.0088C7.16934 15.4402 6.98574 16.349 7.05918 16.349C7.0959 16.349 7.16934 16.1654 7.35293 15.6881C7.5916 14.5957 9.26231 13.8063 9.43672 13.1361C9.4459 13.1453 9.4459 13.1453 9.45508 13.1453C9.64785 13.1453 10.8871 12.0529 11.4287 11.9336C11.6398 11.7225 11.7867 11.649 11.8969 11.649C12.0162 11.649 12.0805 11.7408 12.1264 11.8234C12.1723 11.9152 12.209 11.9979 12.2549 11.9979C12.2916 11.9979 12.3375 11.9428 12.4201 11.7867C12.1355 11.2268 12.8699 10.6943 12.668 10.6943C12.5945 10.6943 12.3742 10.7678 11.9244 10.9514C11.851 10.9881 11.8143 10.9973 11.7959 10.9973C11.7408 10.9973 11.9611 10.8504 12.2824 10.7035C12.6037 10.5566 13.0076 10.4098 13.3473 10.4098C13.5125 10.4098 13.6594 10.4465 13.7695 10.5383C15.1924 10.1986 14.4121 9.73047 14.4855 9.73047H14.5039C14.9078 9.4918 14.7885 8.59219 15.3852 8.03223ZM9.02363 11.7867C9.00527 11.7867 9.08789 11.6674 9.36328 11.3277C9.93242 10.9055 10.3914 10.6209 9.86816 10.3455C10.0977 10.2445 10.318 10.1252 10.5291 9.99668C10.5199 10.4465 10.1436 11.5389 9.9416 11.5389C9.8957 11.5389 9.8498 11.4746 9.83145 11.3369C9.95078 11.1258 9.95996 11.0432 9.91406 11.0432C9.84063 11.0432 9.62949 11.2268 9.42754 11.4195C9.22559 11.5939 9.04199 11.7867 9.02363 11.7867ZM9.54688 12.0346C9.29902 12.0346 9.34492 11.8785 10.1068 11.7225C10.4373 11.6766 10.1803 11.6949 10.575 11.6031C10.1895 11.9152 9.75801 12.0346 9.54688 12.0346ZM23.8213 11.1074C23.9314 11.0891 24.0141 11.0891 24.0783 11.0891C24.3445 11.0891 24.2252 11.1992 24.0691 11.3094C23.9131 11.4195 23.7203 11.5297 23.8305 11.5297C23.8947 11.5297 24.0691 11.493 24.4271 11.392C26.2355 11.2635 23.7203 9.73047 24.1242 9.21641L24.0141 9.17969C23.2705 10.1252 24.5098 10.1436 23.8213 11.1074ZM23.0686 11.1441C23.1971 11.1441 23.3623 10.9973 23.5367 10.5842C23.7754 10.2996 23.6744 10.2629 23.4174 10.1252C22.7105 10.3088 22.7748 11.1441 23.0686 11.1441ZM29.4025 14.0541C29.375 14.0541 29.3566 14.0633 29.3383 14.0725C29.4117 14.0908 29.4852 14.1092 29.5586 14.1092C29.4852 14.0725 29.4393 14.0541 29.4025 14.0541ZM41.7309 16.3398C41.8869 16.6795 41.9695 16.8172 41.9787 16.8172C42.043 16.8172 40.8221 13.843 40.3172 13.3105C37.6826 8.97773 33.3498 5.66387 28.4111 4.42461H28.402C28.2734 4.42461 28.4203 4.48887 28.5947 4.55312C28.7691 4.61738 28.9803 4.68164 28.9803 4.68164C28.9803 4.68164 28.8426 4.63574 28.4203 4.51641C27.9521 4.37871 27.4748 4.27773 26.9883 4.24102C26.9057 4.26855 28.9986 5.09473 30.4031 5.52617C29.935 5.3793 29.4484 5.25078 29.3291 5.25078C29.2465 5.25078 29.3291 5.30586 29.6688 5.45273C29.2557 5.3334 29.0813 5.27832 29.0629 5.27832C29.0354 5.27832 29.6137 5.47109 30.1553 5.66387C30.7061 5.85664 31.2293 6.04941 31.0824 6.04941C31.0457 6.04941 30.9447 6.03105 30.7887 6.00352C31.2568 6.26055 31.4221 6.36152 31.3945 6.36152C31.3486 6.36152 30.7703 6.08613 30.1736 5.81074C29.5861 5.53535 28.9895 5.25996 28.9068 5.25996C28.8609 5.25996 28.9803 5.35176 29.3842 5.59043C29.935 5.8291 30.4857 6.06777 30.3297 6.06777C30.2563 6.06777 30.0451 6.02188 29.632 5.90254C30.55 6.3707 28.9803 6.18711 29.5127 6.82051C29.2189 6.54512 29.0996 6.45332 29.0721 6.45332C29.0445 6.45332 29.118 6.56348 29.1914 6.67363C29.2648 6.78379 29.3199 6.89395 29.2557 6.89395H29.2373C29.8799 7.5916 28.7875 6.96738 29.5678 7.5916C28.9803 7.32539 27.9797 6.88477 28.4295 6.88477C28.5397 6.88477 28.7508 6.9123 29.0812 6.98574C28.4846 6.28809 26.7955 6.26055 26.7588 6.17793C26.3365 6.20547 26.3273 6.52676 26.4008 7.11426C26.3916 8.04141 25.4828 8.05977 25.6021 8.59219C25.6021 8.58301 25.6113 8.58301 25.6113 8.58301C25.6297 8.58301 25.6389 8.7666 25.6939 8.95938C25.7582 9.14297 25.8684 9.33574 26.107 9.33574C26.2355 9.33574 26.4008 9.28066 26.6027 9.14297C26.8873 9.65703 27.1443 9.84062 27.3463 9.84062C27.6492 9.84062 27.8328 9.42754 27.8145 9.05117C27.484 8.86758 27.0525 7.34375 27.5299 7.34375C27.6033 7.34375 27.6951 7.38047 27.8145 7.46309C27.0709 9.28984 30.752 8.06895 28.6682 8.9043C29.1363 9.51934 28.3744 9.4918 28.5947 10.2354C28.2367 10.3363 27.842 10.4281 27.4932 10.4281C26.9791 10.4281 26.5844 10.2078 26.6303 9.43672C25.9877 9.77637 27.2729 10.9238 25.9969 10.9238H25.9234C25.3084 12.0529 23.0043 11.6674 24.8127 12.8607C24.9137 13.384 24.5832 13.4758 24.1609 13.4758C24.0508 13.4758 23.9314 13.4666 23.8121 13.4574C23.6928 13.4482 23.5734 13.4482 23.4633 13.4482C22.9859 13.4482 22.6463 13.5676 22.94 14.3111C22.7289 15.0822 23.2246 15.4219 23.8305 15.4219C24.5648 15.4219 25.4645 14.9445 25.5287 14.1551C25.9234 13.5584 26.4283 13.3105 26.9516 13.3105C27.7777 13.3105 28.6498 13.9348 29.2189 14.7059C29.2648 14.7793 29.3016 14.8068 29.3199 14.8068C29.3658 14.8068 29.3199 14.6232 29.3016 14.4396C29.2832 14.2928 29.2832 14.1459 29.3383 14.1C28.5213 13.8705 27.8971 12.8791 28.1725 12.8791C28.2643 12.8791 28.457 12.9893 28.7691 13.283H28.815C29.3291 13.283 29.733 13.6869 30.0451 14.0908C30.3664 14.4947 30.6051 14.8986 30.8162 14.8986C30.8988 14.8986 30.9814 14.8252 31.0549 14.66C31.0182 14.6049 30.9264 14.4488 30.8805 14.2928C30.8254 14.1 30.8254 13.9072 31.0732 13.9072C31.1742 13.9072 31.3119 13.9439 31.5047 14.0174C32.1289 13.8521 31.11 12.2273 31.9361 12.2273C32.0188 12.2273 32.1197 12.2457 32.2482 12.2824C32.2391 12.567 32.3676 12.668 32.4869 12.668C32.7256 12.668 32.9643 12.3283 32.3859 12.2273C32.6063 12.0162 32.7348 11.9336 32.8266 11.9336C33.1479 11.9336 32.8908 12.9984 34.0016 12.9984C34.3779 13.8889 30.7336 13.0627 31.8994 14.7701C32.1656 14.9629 32.4961 14.9996 32.8174 14.9996C32.9184 14.9996 33.0102 14.9996 33.102 14.9904C33.1938 14.9904 33.2855 14.9813 33.3682 14.9813C33.9373 14.9813 34.3412 15.1189 34.0934 16.2939C33.7904 16.5143 33.4508 16.5877 33.102 16.5877C32.7898 16.5877 32.4777 16.5326 32.1748 16.4775C31.8719 16.4225 31.5781 16.3674 31.3119 16.3674C30.8988 16.3674 30.5684 16.5051 30.3664 16.9824C29.2924 16.5418 27.8787 16.5234 28.0164 15.1924C26.1438 15.4586 24.1885 15.3209 22.8115 16.4684C22.7289 18.1482 19.8465 18.6898 20.5441 20.5992C19.7088 22.3617 21.5539 24.8311 23.4357 24.8311C23.5 24.8311 23.5734 24.8311 23.6377 24.8219C24.6658 24.8127 25.7031 24.3537 26.6119 24.3537C27.0801 24.3537 27.5023 24.473 27.8695 24.8402C27.9521 24.8311 28.0256 24.8219 28.0898 24.8219C29.4943 24.8219 27.64 27.0525 29.3199 27.4289C30.8438 29.0078 28.3836 30.6326 29.5861 32.1473C29.7146 33.3314 30.3021 34.3229 30.3021 35.4795C30.4582 35.4979 30.6051 35.507 30.7611 35.507C32.698 35.507 33.9098 33.818 35.048 32.542C34.6992 30.6326 37.7561 30.2563 36.7096 28.1174C36.223 25.7766 39.0137 24.3904 38.8576 22.0496C38.8852 21.7191 38.7934 21.6182 38.6557 21.6182C38.518 21.6182 38.316 21.7191 38.1232 21.8109C37.9213 21.9119 37.701 22.0037 37.5266 22.0037C37.2971 22.0037 37.1227 21.8477 37.1043 21.3336C35.7549 20.076 35.1398 18.3686 33.8822 16.9824C35.5162 17.7719 36.4434 19.5527 37.1961 21.1684C37.2604 21.1867 37.3246 21.1959 37.398 21.1959C38.7291 21.1959 40.5834 18.0105 38.5639 17.2395C38.4537 17.5424 38.3068 17.6525 38.1324 17.6525C37.8295 17.6525 37.4807 17.2854 37.2328 16.9273C36.985 16.5602 36.8564 16.193 36.9941 16.193C37.0859 16.193 37.2879 16.3398 37.6367 16.7254C38.0314 16.9732 38.417 17.0375 38.8209 17.0375C39.2156 17.0375 39.6195 16.9732 40.0418 16.9365C40.5742 17.1477 40.8037 17.827 40.9689 17.827C40.9965 17.827 41.0332 17.7994 41.0607 17.7352C41.483 18.7449 41.9695 20.5441 42.4102 21.0307C42.1807 19.4885 42.1256 17.8545 41.7309 16.3398ZM36.6086 14.2193C35.5713 13.9531 35.2316 12.668 34.4146 11.9244C34.4055 11.7225 34.7084 11.7592 34.635 11.4195C35.7365 11.7592 35.3785 12.0988 35.2775 12.1631C35.6814 12.8332 36.8105 13.2922 36.6086 14.2193ZM22.3525 7.23359C21.352 7.52734 21.2143 7.20605 21.3887 7.82109C21.4621 7.87617 21.5998 7.89453 21.7375 7.89453C22.224 7.90371 22.885 7.61914 22.3525 7.23359ZM37.0492 32.5236C38.3619 31.4129 38.5271 30.091 38.5914 28.7508C38.0039 29.8982 36.2598 31.165 37.0492 32.5236ZM31.0732 14.6232C31.0641 14.6324 31.0641 14.6324 31.0641 14.6416C31.0732 14.66 31.0824 14.66 31.0824 14.66C31.0824 14.66 31.0824 14.6508 31.0732 14.6232ZM23.5 0C10.5199 0 0 10.5199 0 23.5C0 36.4801 10.5199 47 23.5 47C36.4801 47 47 36.4801 47 23.5C47 10.5199 36.4801 0 23.5 0ZM23.5 45.1916C11.5205 45.1916 1.8084 35.4795 1.8084 23.5C1.8084 11.5205 11.5205 1.8084 23.5 1.8084C35.4795 1.8084 45.1916 11.5205 45.1916 23.5C45.1916 35.4795 35.4795 45.1916 23.5 45.1916Z" fill="#F5A914"/>
</svg>
