<svg width="47" height="47" fill="none" xmlns="http://www.w3.org/2000/svg"><path d="M21.692 6.022c.11 0 .247.055.367.22-.533-.762.596-.431.66-1.156.643-.478.414-.79.597-.808l.202-.165c-.394.146-.532.174-.642.174h-.184c-.137 0-.367.027-.909.193-1.239.091-2.13 1.432-2.552 1.468-.431.23-.413.276-.312.276.028 0 .065-.01.101-.01.037 0 .065-.009.092-.009.101 0 .074.046-.514.322.138.036-1.028.55-1.037 1.358-.037.312.091.524.303.524.183 0 .413-.138.66-.487.827-.955 2.57-1.046 3.324-1.625-.468-.036-.377-.275-.156-.275zm-4.195.321c-.083 0 .027-.1.146-.202.129-.1.276-.202.276-.202l-.01.01c.496-.193.193-.24.46-.368h-.019c-.055 0 .046-.073.138-.156.092-.073.174-.156.092-.156-.046 0-.165.028-.367.11.064-.091.312-.156.66-.349-.504.166-.9.267-.945.267-.037 0 .174-.074.808-.267.027 0 .055.01.073.01.064 0 .092-.019.083-.037-.01-.018-.046-.028-.11-.028-.91.074-1.588.643-1.387.716a.99.99 0 01.258-.055c.119 0 .064.101-.175.248.11.257-1.836.918-2.056 1.157a.499.499 0 01.22-.083c.147 0-.046.285-.239.422.12.11.212.147.285.147.193 0 .275-.266.44-.348.037.073.074.11.12.11.156 0 .349-.386.505-.588a.243.243 0 00.174.083c.147 0 .367-.12.716-.46-.073.01-.128.02-.146.02zm-2.112 1.69c-.33.201-.505.284-.578.284-.138 0 .046-.257.211-.523.165-.257.312-.515.1-.515-.1 0-.284.056-.577.202-.799.533-2.148 2.002-2.745 2.002h-.055c.964-.707.68-2.093 2.029-2.451 1.33-.762 2.24-.524 3.424-1.396-.35.175-.863.368-.983.368-.073 0 .037-.092.514-.322-.046.01-.082.019-.11.019-.321 0 2.112-.872 2.23-.89-1 .137-2.615.972-2.836.972-.027 0-.027-.009-.027-.027.037-.028.037-.046 0-.046-.12 0-.615.165-1.12.33-.496.165-1 .34-1.11.34-.038 0-.038-.018.018-.055-4.333 2.46-7.95 6.61-9.08 11.53.469 1.073.148 3.12.919 3.717.881.744-.753 2.901-.322 4.232.441 2.405 2.341 4.048 2.543 6.509.35 1.689 1.625 3.754 2.158 4.828.403.404 1.514 1.57 1.707 1.57.073 0 .027-.175-.266-.643-.184-.523-1.249-1.89-.735-1.89.028 0 .055 0 .092.008-.633-.642 1.405-.468-.018-1.34-.166-.202-.202-.266-.166-.266.046 0 .175.073.322.147.156.073.34.147.486.147.23 0 .386-.156.294-.726a.209.209 0 00.101.019c.239 0 .156-.468.175-.937.018-.468.137-.936.78-.936.073 0 .156.01.238.019 1.488-.808.193-3.039 1.9-3.856-.064-1.854-2.551-1.946-3.488-2.699a.85.85 0 01-.45.12 1.29 1.29 0 01-.44-.083c-.129-.037-.248-.083-.33-.083-.019 0-.037 0-.056.01 1.598-.423.432-2.644-.89-2.644h-.092c-.1-.964-.597-.597-.652-1.396a.5.5 0 01-.247.065c-.22 0-.423-.156-.597-.303-.175-.156-.321-.303-.45-.303-.1 0-.193.1-.275.395.091-.45.064-.597-.028-.597s-.257.156-.44.312c-.175.156-.377.312-.533.312h-.046c-1.074-.762.01-2.111-.56-3.148.367-.395.514-1.065.35-1.065-.084 0-.249.165-.506.615-.367-.937.606-3.057 1.432-3.176.028 0 .046-.01.074-.01.147 0 .293.074.422.23.073.431-.11 1.34-.037 1.34.037 0 .11-.184.294-.66.239-1.093 1.91-1.883 2.084-2.553.009.01.009.01.018.01.193 0 1.432-1.093 1.974-1.212.21-.211.358-.285.468-.285.12 0 .184.092.23.174.045.092.082.175.128.175.037 0 .082-.055.165-.211-.284-.56.45-1.093.248-1.093-.073 0-.294.074-.744.257a.342.342 0 01-.128.046c-.055 0 .165-.147.486-.293.322-.147.726-.294 1.065-.294.165 0 .312.037.423.128 1.422-.34.642-.808.716-.808h.018c.404-.238.285-1.138.881-1.698zm-6.361 3.754c-.019 0 .064-.12.34-.46.568-.421 1.027-.706.504-.982.23-.1.45-.22.661-.348-.01.45-.385 1.542-.587 1.542-.046 0-.092-.064-.11-.202.119-.211.128-.294.082-.294-.073 0-.285.184-.486.377-.202.174-.386.367-.404.367zm.523.248c-.248 0-.202-.156.56-.313.33-.045.073-.027.468-.119-.385.312-.817.432-1.028.432zm14.274-.928c.11-.018.193-.018.257-.018.267 0 .147.11-.009.22s-.349.22-.238.22c.064 0 .238-.036.596-.137 1.808-.128-.707-1.662-.303-2.176l-.11-.036c-.744.945.496.964-.193 1.927zm-.752.037c.128 0 .293-.147.468-.56.238-.284.137-.321-.12-.459-.707.184-.642 1.02-.348 1.02zm6.334 2.91a.132.132 0 00-.065.018.897.897 0 00.22.037.394.394 0 00-.155-.055zM41.73 16.34c.156.34.238.477.248.477.064 0-1.157-2.974-1.662-3.507-2.634-4.332-6.967-7.646-11.906-8.885h-.009c-.129 0 .018.064.193.128.174.064.385.129.385.129s-.137-.046-.56-.166a6.926 6.926 0 00-1.432-.275c-.082.028 2.01.854 3.415 1.285-.468-.147-.955-.275-1.074-.275-.082 0 0 .055.34.202-.413-.12-.588-.175-.606-.175-.028 0 .55.193 1.092.386.551.193 1.074.385.927.385-.036 0-.137-.018-.293-.045.468.257.633.358.605.358-.045 0-.624-.276-1.22-.551-.588-.276-1.184-.551-1.267-.551-.046 0 .073.092.477.33.551.24 1.102.478.946.478-.074 0-.285-.046-.698-.165.918.468-.652.284-.12.918-.293-.276-.412-.368-.44-.368-.027 0 .046.11.12.22.073.11.128.221.064.221h-.019c.643.698-.45.073.33.698-.587-.267-1.587-.707-1.137-.707.11 0 .32.027.651.1-.596-.697-2.285-.724-2.322-.807-.422.027-.432.349-.358.936-.01.927-.918.946-.799 1.478 0-.009.01-.009.01-.009.018 0 .027.184.082.376.064.184.174.377.413.377.128 0 .294-.055.496-.193.284.514.541.698.743.698.303 0 .487-.413.468-.79-.33-.183-.762-1.707-.284-1.707.073 0 .165.036.284.12-.743 1.826 2.938.605.854 1.44.468.615-.294.588-.073 1.331-.358.101-.753.193-1.102.193-.514 0-.909-.22-.863-.991-.642.34.643 1.487-.633 1.487h-.074c-.615 1.129-2.919.743-1.11 1.937.1.523-.23.615-.652.615-.11 0-.23-.01-.349-.019-.12-.009-.239-.009-.349-.009-.477 0-.817.12-.523.863-.211.771.285 1.11.89 1.11.735 0 1.635-.476 1.699-1.266.394-.597.9-.845 1.423-.845.826 0 1.698.625 2.267 1.396.046.073.083.1.1.1.047 0 0-.183-.017-.366-.019-.147-.019-.294.036-.34-.817-.23-1.44-1.22-1.166-1.22.092 0 .285.11.597.403h.046c.514 0 .918.404 1.23.808.321.404.56.808.771.808.083 0 .165-.074.239-.239a1.533 1.533 0 01-.174-.367c-.056-.193-.056-.386.192-.386.101 0 .239.037.432.11.624-.165-.395-1.79.431-1.79.083 0 .184.019.312.055-.009.285.12.386.239.386.239 0 .477-.34-.101-.44.22-.212.349-.294.44-.294.322 0 .065 1.064 1.176 1.064.376.89-3.268.065-2.103 1.772.267.193.597.23.918.23.101 0 .193 0 .285-.01.092 0 .184-.009.266-.009.57 0 .973.138.725 1.313-.303.22-.642.294-.991.294-.312 0-.624-.055-.927-.11-.303-.056-.597-.11-.863-.11-.413 0-.744.137-.946.614-1.074-.44-2.487-.459-2.35-1.79-1.872.267-3.827.129-5.204 1.276-.083 1.68-2.966 2.222-2.268 4.131-.835 1.763 1.01 4.232 2.892 4.232.064 0 .137 0 .202-.01 1.028-.008 2.065-.467 2.974-.467.468 0 .89.119 1.258.486.082-.009.156-.018.22-.018 1.404 0-.45 2.23 1.23 2.607 1.524 1.579-.936 3.204.266 4.718.129 1.184.716 2.176.716 3.333.156.018.303.027.46.027 1.936 0 3.148-1.689 4.286-2.965-.349-1.91 2.708-2.286 1.662-4.425-.487-2.34 2.304-3.727 2.148-6.067.027-.33-.065-.432-.202-.432-.138 0-.34.101-.533.193-.202.1-.422.193-.596.193-.23 0-.404-.156-.423-.67-1.35-1.258-1.964-2.965-3.222-4.352 1.634.79 2.561 2.57 3.314 4.186a.718.718 0 00.202.028c1.331 0 3.185-3.186 1.166-3.957-.11.303-.257.413-.432.413-.302 0-.651-.367-.9-.725-.247-.367-.376-.734-.238-.734.092 0 .294.147.643.532.394.248.78.313 1.184.313.395 0 .799-.065 1.22-.102.533.212.763.891.928.891.027 0 .064-.028.092-.092.422 1.01.908 2.81 1.35 3.296-.23-1.543-.285-3.176-.68-4.691zm-5.122-2.12c-1.038-.267-1.377-1.552-2.194-2.296-.01-.201.293-.165.22-.505 1.102.34.744.68.643.744.403.67 1.532 1.13 1.33 2.056zM22.352 7.233c-1 .293-1.138-.028-.963.587.073.055.21.074.349.074.486.009 1.147-.276.614-.661zm14.697 25.29c1.313-1.111 1.478-2.433 1.542-3.773-.587 1.147-2.331 2.414-1.542 3.773zm-5.976-17.9c-.009.008-.009.008-.009.018.01.018.018.018.018.018s0-.01-.009-.037zM23.5 0C10.52 0 0 10.52 0 23.5S10.52 47 23.5 47 47 36.48 47 23.5 36.48 0 23.5 0zm0 45.192c-11.98 0-21.692-9.712-21.692-21.692S11.521 1.808 23.5 1.808c11.98 0 21.692 9.713 21.692 21.692 0 11.98-9.712 21.692-21.692 21.692z" fill="#F5A914"/></svg>