<svg width="63" height="63" viewBox="0 0 63 63" fill="none" xmlns="http://www.w3.org/2000/svg">
<path d="M40.25 45.5C40.25 45.9641 40.0656 46.4093 39.7374 46.7374C39.4092 47.0656 38.9641 47.25 38.5 47.25H14C13.615 47.25 13.2475 47.6 12.9325 47.8275L7 52.5V24.5C7 24.0359 7.18437 23.5908 7.51256 23.2626C7.84075 22.9344 8.28587 22.75 8.75 22.75H15.505V19.25H8.75C7.35761 19.25 6.02226 19.8031 5.03769 20.7877C4.05312 21.7723 3.5 23.1076 3.5 24.5V56C3.5026 56.325 3.59567 56.6429 3.76876 56.918C3.94185 57.1931 4.18813 57.4145 4.48 57.5575C4.76119 57.6854 5.07121 57.7365 5.37858 57.7058C5.68595 57.6751 5.9797 57.5635 6.23 57.3825L15.2425 50.75H38.7625C39.4258 50.7696 40.086 50.6528 40.7023 50.4069C41.3186 50.161 41.8778 49.7912 42.3454 49.3203C42.813 48.8495 43.1789 48.2876 43.4205 47.6696C43.6621 47.0516 43.7742 46.3906 43.75 45.7275V43.75H40.25V45.5Z" fill="#F5A914"/>
<path d="M54.25 7H24.5C23.1076 7 21.7723 7.55312 20.7877 8.53769C19.8031 9.52226 19.25 10.8576 19.25 12.25V33.25C19.25 34.6424 19.8031 35.9777 20.7877 36.9623C21.7723 37.9469 23.1076 38.5 24.5 38.5H48.2125L56.5775 44.9925C56.8262 45.1764 57.1191 45.291 57.4265 45.3248C57.7339 45.3587 58.0448 45.3104 58.3275 45.185C58.6253 45.0432 58.877 44.8201 59.0534 44.5414C59.2299 44.2627 59.3241 43.9399 59.325 43.61V12.25C59.3258 10.8874 58.7967 9.5779 57.8497 8.59822C56.9027 7.61853 55.6118 7.04542 54.25 7ZM56 40.145L49.875 35.3675C49.5695 35.1304 49.1942 35.0012 48.8075 35H24.5C24.0359 35 23.5908 34.8156 23.2626 34.4874C22.9344 34.1593 22.75 33.7141 22.75 33.25V12.25C22.75 11.7859 22.9344 11.3408 23.2626 11.0126C23.5908 10.6844 24.0359 10.5 24.5 10.5H54.25C54.7178 10.5425 55.1539 10.7545 55.4762 11.0961C55.7986 11.4378 55.9848 11.8855 56 12.355V40.145Z" fill="#F5A914"/>
</svg>
