<svg width="67" height="67" viewBox="0 0 67 67" fill="none" xmlns="http://www.w3.org/2000/svg">
<path d="M56.5312 8.375H2.09375V50.25H56.5312V8.375ZM52.3438 46.0625H6.28125V12.5625H52.3438V46.0625Z" fill="#F5A914"/>
<path d="M60.7188 18.8438V54.4375H12.5625V58.625H64.9062V18.8438H60.7188Z" fill="#F5A914"/>
<path d="M29.3125 39.58C34.5076 39.58 38.7344 34.9819 38.7344 29.3303C38.7344 23.6786 34.5076 19.0806 29.3125 19.0806C24.1174 19.0806 19.8906 23.6784 19.8906 29.3303C19.8906 34.9821 24.1174 39.58 29.3125 39.58ZM29.3125 23.2681C32.1987 23.2681 34.5469 25.9876 34.5469 29.3303C34.5469 32.6729 32.1987 35.3925 29.3125 35.3925C26.4263 35.3925 24.0781 32.6729 24.0781 29.3303C24.0781 25.9876 26.4263 23.2681 29.3125 23.2681Z" fill="#F5A914"/>
<path d="M10.4688 17.7969H14.6562V40.8281H10.4688V17.7969Z" fill="#F5A914"/>
<path d="M43.9688 17.7969H48.1562V40.8281H43.9688V17.7969Z" fill="#F5A914"/>
</svg>
