<svg width="64" height="64" viewBox="0 0 64 64" fill="none" xmlns="http://www.w3.org/2000/svg">
<path d="M58 62.0001C57.5454 61.9999 57.1045 61.8447 56.75 61.5601L47.3 54.0001H40C39.4696 54.0001 38.9609 53.7894 38.5858 53.4143C38.2107 53.0392 38 52.5305 38 52.0001V42.0001C38 41.4697 38.2107 40.9609 38.5858 40.5859C38.9609 40.2108 39.4696 40.0001 40 40.0001H47.3L56.752 32.4401C57.0461 32.2052 57.4005 32.0581 57.7744 32.0157C58.1483 31.9732 58.5267 32.0372 58.8659 32.2001C59.2051 32.363 59.4915 32.6184 59.6921 32.9368C59.8928 33.2552 59.9995 33.6237 60 34.0001V60.0001C60 60.5305 59.7893 61.0392 59.4142 61.4143C59.0391 61.7894 58.5304 62.0001 58 62.0001ZM42 50.0001H48C48.4546 50.0004 48.8954 50.1556 49.25 50.4401L56 55.8401V38.1601L49.248 43.5601C48.894 43.8441 48.4539 43.9993 48 44.0001H42V50.0001Z" fill="#F5A914"/>
<path d="M32 56.0002H16V8.00019H32V20.0002C32.0032 21.0601 32.4256 22.0757 33.1751 22.8251C33.9245 23.5746 34.9401 23.997 36 24.0002H48V30.0002H52V20.0002C52.0071 19.7373 51.9571 19.4761 51.8535 19.2344C51.7499 18.9927 51.5952 18.7764 51.4 18.6002L37.4 4.60019C37.2239 4.40488 37.0076 4.25009 36.7659 4.14651C36.5242 4.04292 36.2629 3.993 36 4.00019H16C14.9401 4.00336 13.9245 4.4258 13.1751 5.17526C12.4256 5.92472 12.0032 6.9403 12 8.00019V56.0002C12.0032 57.0601 12.4256 58.0757 13.1751 58.8251C13.9245 59.5746 14.9401 59.997 16 60.0002H32V56.0002ZM36 8.80019L47.2 20.0002H36V8.80019Z" fill="#F5A914"/>
</svg>
