<svg width="24" height="25" viewBox="0 0 24 25" fill="none" xmlns="http://www.w3.org/2000/svg">
<path d="M15.7832 0.570312H8.82891C2.31202 0.570312 0.625137 2.26613 0.625137 8.81789V15.82C0.31776 25.9043 6.56538 23.8074 14.0897 24.08C14.5378 24.0679 14.5368 23.4055 14.0897 23.3951H8.8171C2.63907 23.3951 1.3053 22.0499 1.3053 15.8203V8.81789C1.3053 2.59792 2.64128 1.25493 8.82891 1.25493C24.2123 1.18139 23.3642 0.345987 23.2948 15.8319C23.2948 22.0522 21.9588 23.3949 15.7714 23.3949C15.3244 23.3993 15.3256 24.0743 15.7714 24.0798C22.2883 24.0798 23.975 22.3839 23.975 15.8319V8.83003C23.975 2.26861 22.2908 0.570312 15.7832 0.570312Z" fill="#FABC1F"/>
<path d="M14.0157 14.8311C14.3951 14.738 15.808 16.1503 16.1968 16.6378C16.6997 17.2014 17.0031 17.5416 17.5933 17.5416H19.2465C19.7068 17.5416 19.938 17.3581 20.0508 17.2044C20.5421 16.4073 19.652 15.4947 18.6799 14.3272C18.3458 13.892 17.6904 13.4146 17.4662 12.989C18.6408 11.0465 21.2176 7.89283 19.0104 7.82227H17.3575C17.0189 7.82227 16.5647 7.94087 16.3222 8.5106C16.3141 8.5309 15.4913 10.5407 14.3658 11.7982C14.0427 12.1006 13.8917 12.2962 13.919 12.076V9.93009C13.9129 9.48243 13.2462 9.47847 13.2389 9.93009V12.076C13.2389 12.6379 13.5497 12.8939 13.8386 12.8939C15.2966 12.7676 16.9857 8.68119 16.9495 8.77528C17.0216 8.60567 17.1116 8.50738 17.3572 8.50738H19.0102C19.141 8.50738 19.202 8.53115 19.2015 8.52298C19.2047 8.53387 19.2074 8.58215 19.1803 8.67302C19.1985 8.79831 18.6423 10.0811 17.0024 12.4247C16.2701 13.3304 17.6265 14.0702 18.165 14.7754C18.5405 15.2248 20.1229 16.96 19.2465 16.8575H17.5933C17.3186 16.8575 17.1713 16.7062 16.7026 16.1808C15.9819 15.3171 14.6253 14.0425 14.0157 14.1472C13.333 14.1472 13.2389 14.586 13.2389 15.0601V16.5579C13.2389 16.7381 13.2389 16.8575 12.3984 16.8575C10.6748 16.8575 8.89428 15.7745 7.63305 13.9573C5.55641 11.0371 5.08723 8.90973 5.08723 8.63984C5.08723 8.45092 4.93501 8.29741 4.74714 8.29741C3.73452 8.26597 5.27214 11.8128 7.07755 14.352C8.46395 16.3491 10.4528 17.5413 12.3981 17.5413C13.3109 17.5413 13.9188 17.374 13.9188 16.5571V15.0594C13.9328 14.8737 13.8868 14.818 14.0157 14.8311Z" fill="#FABC1F"/>
<path d="M8.02888 8.67376C7.87421 8.26176 7.65192 7.82227 6.96683 7.82227H5.57134C5.12724 7.82969 5.12208 8.49871 5.57134 8.50713H6.96683C7.17831 8.50713 7.24569 8.52446 7.3888 8.90527C8.03454 10.817 9.492 13.5832 10.4382 13.5832C11.0854 13.5832 11.0854 12.9266 11.0854 12.6109L11.0847 10.1401C10.9069 7.99138 8.86741 8.58661 13.2056 8.51555C13.2113 8.52545 13.239 8.5824 13.239 8.77107C13.2452 9.22071 13.9123 9.22096 13.9192 8.77107C13.9192 8.14167 13.646 7.82251 13.107 7.82251H10.509C9.69536 7.85495 9.54806 8.7109 10.0185 9.1655C10.1827 9.37175 10.3691 9.60524 10.4053 10.1621C10.4004 10.2851 10.4183 12.8372 10.3925 12.8731C9.98749 12.6356 8.81773 11.0091 8.02888 8.67376Z" fill="#FABC1F"/>
</svg>
