<svg width="26" height="25" viewBox="0 0 26 25" fill="none" xmlns="http://www.w3.org/2000/svg">
<path d="M24.8378 4.37287C24.5258 2.79563 23.6006 1.55357 22.427 1.13206C20.8367 0.559636 15.5848 0.45575 13.3998 0.4375C12.8979 0.452241 12.8966 1.44056 13.3975 1.45811C15.0785 1.47214 20.6826 1.56094 22.2282 2.11757C23.1389 2.44467 23.8551 3.40877 24.0988 4.63328C24.5857 7.0767 24.5915 12.2787 24.5915 12.331C24.5915 12.3833 24.5855 17.5867 24.0983 20.0301C23.8548 21.2539 23.1382 22.2173 22.228 22.5441C20.4097 23.1983 12.9431 23.206 12.868 23.206C12.7928 23.206 5.32621 23.1983 3.50795 22.5437C2.59776 22.2166 1.88108 21.2532 1.63763 20.0294C1.1502 17.5863 1.14442 12.3829 1.14442 12.3306C1.14442 12.2784 1.1502 7.07495 1.63763 4.63153C1.88108 3.40772 2.59777 2.44432 3.50821 2.11757C4.92449 1.60762 9.77775 1.49075 11.7985 1.46407C12.3009 1.44933 12.2925 0.445923 11.7911 0.443466C9.24458 0.477159 4.75649 0.611228 3.30945 1.13206C2.13584 1.55357 1.21198 2.79423 0.898861 4.36971C0.385667 6.94123 0.379883 12.112 0.379883 12.3306C0.379883 12.5493 0.385667 17.7201 0.898598 20.2916C1.21198 21.8674 2.13584 23.1081 3.30893 23.5292C5.22394 24.2185 12.5564 24.2266 12.8677 24.2266C13.1787 24.2266 20.5114 24.2185 22.4265 23.5292C23.5998 23.1081 24.5237 21.8674 24.8368 20.2919C25.3497 17.7201 25.3558 12.5493 25.3558 12.3306C25.356 12.112 25.35 6.94579 24.8378 4.37287Z" fill="#FABC1F"/>
<path d="M8.72946 7.30254C8.57523 7.39267 8.48056 7.55871 8.48056 7.73827V17.2314C8.47505 17.5025 8.71328 17.7413 8.98112 17.7354C9.0665 17.7354 9.15187 17.7136 9.22864 17.6695L17.5147 12.9233C17.8466 12.7465 17.8486 12.2241 17.515 12.047L9.22864 7.30011C9.07407 7.21172 8.88369 7.21241 8.72946 7.30254ZM9.48168 8.60487L16.255 12.4848L9.48168 16.3644V8.60487Z" fill="#FABC1F"/>
</svg>
